<svg width="37" height="32" viewBox="0 0 37 32" fill="none" xmlns="http://www.w3.org/2000/svg">
<path fill-rule="evenodd" clip-rule="evenodd" d="M17.347 0.661021C17.138 0.451486 16.8897 0.285243 16.6164 0.171814C16.343 0.0583847 16.05 0 15.754 0C15.4581 0 15.165 0.0583847 14.8917 0.171814C14.6183 0.285243 14.37 0.451486 14.161 0.661021L0.661034 14.161C0.451498 14.37 0.285257 14.6183 0.171829 14.8917C0.0583992 15.165 1.14441e-05 15.4581 1.14441e-05 15.754C1.14441e-05 16.05 0.0583992 16.343 0.171829 16.6164C0.285257 16.8897 0.451498 17.138 0.661034 17.347L14.161 30.847C14.5835 31.2695 15.1565 31.5069 15.754 31.5069C16.3515 31.5069 16.9245 31.2695 17.347 30.847C17.7695 30.4245 18.0069 29.8515 18.0069 29.254C18.0069 28.6565 17.7695 28.0835 17.347 27.661L5.43553 15.754L17.347 3.84702C17.5566 3.63802 17.7228 3.38973 17.8362 3.11637C17.9497 2.84302 18.0081 2.54997 18.0081 2.25402C18.0081 1.95807 17.9497 1.66502 17.8362 1.39167C17.7228 1.11832 17.5566 0.870026 17.347 0.661021Z" fill="white"/>
<path fill-rule="evenodd" clip-rule="evenodd" d="M36.004 15.7544C36.004 15.1577 35.767 14.5854 35.345 14.1634C34.9231 13.7414 34.3508 13.5044 33.754 13.5044H4.50403C3.90729 13.5044 3.33499 13.7414 2.91304 14.1634C2.49108 14.5854 2.25403 15.1577 2.25403 15.7544C2.25403 16.3511 2.49108 16.9234 2.91304 17.3454C3.33499 17.7673 3.90729 18.0044 4.50403 18.0044H33.754C34.3508 18.0044 34.9231 17.7673 35.345 17.3454C35.767 16.9234 36.004 16.3511 36.004 15.7544Z" fill="white"/>
</svg>
