<svg width="37" height="32" viewBox="0 0 37 32" fill="none" xmlns="http://www.w3.org/2000/svg">
<path fill-rule="evenodd" clip-rule="evenodd" d="M18.657 0.661021C18.866 0.451486 19.1143 0.285243 19.3877 0.171814C19.661 0.0583847 19.9541 0 20.25 0C20.546 0 20.839 0.0583847 21.1124 0.171814C21.3857 0.285243 21.634 0.451486 21.843 0.661021L35.343 14.161C35.5525 14.37 35.7188 14.6183 35.8322 14.8917C35.9456 15.165 36.004 15.4581 36.004 15.754C36.004 16.05 35.9456 16.343 35.8322 16.6164C35.7188 16.8897 35.5525 17.138 35.343 17.347L21.843 30.847C21.4205 31.2695 20.8475 31.5069 20.25 31.5069C19.6525 31.5069 19.0795 31.2695 18.657 30.847C18.2345 30.4245 17.9972 29.8515 17.9972 29.254C17.9972 28.6565 18.2345 28.0835 18.657 27.661L30.5685 15.754L18.657 3.84702C18.4475 3.63802 18.2812 3.38973 18.1678 3.11637C18.0544 2.84302 17.996 2.54997 17.996 2.25402C17.996 1.95807 18.0544 1.66502 18.1678 1.39167C18.2812 1.11832 18.4475 0.870026 18.657 0.661021Z" fill="#0ABFE5"/>
<path fill-rule="evenodd" clip-rule="evenodd" d="M0 15.7544C0 15.1577 0.237053 14.5854 0.65901 14.1634C1.08097 13.7414 1.65326 13.5044 2.25 13.5044H31.5C32.0967 13.5044 32.669 13.7414 33.091 14.1634C33.5129 14.5854 33.75 15.1577 33.75 15.7544C33.75 16.3511 33.5129 16.9234 33.091 17.3454C32.669 17.7673 32.0967 18.0044 31.5 18.0044H2.25C1.65326 18.0044 1.08097 17.7673 0.65901 17.3454C0.237053 16.9234 0 16.3511 0 15.7544Z" fill="#0ABFE5"/>
</svg>
