<?xml version="1.0" encoding="utf-8"?>
<!-- Generator: Adobe Illustrator 24.1.1, SVG Export Plug-In . SVG Version: 6.00 Build 0)  -->
<svg version="1.1" id="Capa_1" xmlns="http://www.w3.org/2000/svg" xmlns:xlink="http://www.w3.org/1999/xlink" x="0px" y="0px"
	 viewBox="0 0 360 160" style="enable-background:new 0 0 360 160;" xml:space="preserve">
<style type="text/css">
	.st0{fill:url(#SVGID_1_);}
	.st1{fill:url(#SVGID_2_);}
</style>
<linearGradient id="SVGID_1_" gradientUnits="userSpaceOnUse" x1="181.9308" y1="398.4561" x2="265.826" y2="125.9071" gradientTransform="matrix(1 0 0 -1 0 298)">
	<stop  offset="0" style="stop-color:#00ADF0;stop-opacity:0.69"/>
	<stop  offset="1" style="stop-color:#00F0BB;stop-opacity:0.26"/>
</linearGradient>
<path class="st0" d="M396.1,105.2c0,0-72.8,81-141.3,46.1C186.2,116.5,212,47,128.7,45.6C45.4,44.1,12,53.3-8.4,3.1
	C-28.8-47,38.4-67.6,104-50.3c65.6,17.4,131-51.7,226.6-49.5C426.2-97.5,468.9,20.1,396.1,105.2z"/>
<linearGradient id="SVGID_2_" gradientUnits="userSpaceOnUse" x1="185.8727" y1="401.0334" x2="233.9588" y2="140.4324" gradientTransform="matrix(1 0 0 -1 0 298)">
	<stop  offset="0" style="stop-color:#00ADF0"/>
	<stop  offset="1" style="stop-color:#00F0BB;stop-opacity:0.55"/>
</linearGradient>
<path class="st1" d="M375.4,107.2c0,0-84.9,68.6-149.8,30S196.3,36.6,111.9,27.7C27.5,18.8-7.6,24.3-21.5-24.1
	C-35.4-72.5,35.6-85.6,99.9-63.5C164.2-41.4,240-99.7,336.8-88.9C433.5-78.2,461,34.8,375.4,107.2z"/>
</svg>
