<svg width="24" height="24" viewBox="0 0 24 24" fill="none" xmlns="http://www.w3.org/2000/svg">
<path d="M10.695 8.937V10.314H9.68701V11.997H10.695V17H12.767V11.997H14.157C14.157 11.997 14.288 11.19 14.351 10.307H12.775V9.157C12.775 8.984 13.001 8.753 13.225 8.753H14.353V7H12.818C10.644 7 10.695 8.685 10.695 8.937Z" fill="#0ABFE5"/>
<path d="M12 20C14.1217 20 16.1566 19.1571 17.6569 17.6569C19.1571 16.1566 20 14.1217 20 12C20 9.87827 19.1571 7.84344 17.6569 6.34315C16.1566 4.84285 14.1217 4 12 4C9.87827 4 7.84344 4.84285 6.34315 6.34315C4.84285 7.84344 4 9.87827 4 12C4 14.1217 4.84285 16.1566 6.34315 17.6569C7.84344 19.1571 9.87827 20 12 20ZM12 22C6.477 22 2 17.523 2 12C2 6.477 6.477 2 12 2C17.523 2 22 6.477 22 12C22 17.523 17.523 22 12 22Z" fill="#0ABFE5"/>
</svg>
