<svg width="14" height="20" viewBox="0 0 14 20" fill="none" xmlns="http://www.w3.org/2000/svg">
<path d="M12.0909 7.98989V5.28445C12.1182 3.91396 11.5979 2.58852 10.6438 1.59816C9.68975 0.607798 8.37957 0.0331643 7 0C5.62042 0.0331643 4.31025 0.607798 3.35616 1.59816C2.40207 2.58852 1.88176 3.91396 1.90909 5.28445V7.98989H0V18.7358C0 19.0711 0.13409 19.3926 0.372773 19.6297C0.611456 19.8668 0.935179 20 1.27273 20H12.7273C13.0648 20 13.3885 19.8668 13.6272 19.6297C13.8659 19.3926 14 19.0711 14 18.7358V7.98989H12.0909ZM3.18182 5.28445C3.15438 4.2492 3.54057 3.24525 4.25601 2.49196C4.97144 1.73866 5.95796 1.29727 7 1.26422C8.04204 1.29727 9.02856 1.73866 9.74399 2.49196C10.4594 3.24525 10.8456 4.2492 10.8182 5.28445V7.98989H3.18182V5.28445ZM1.27273 18.7358V9.25411H12.7273V18.7358H1.27273Z" fill="#828282"/>
</svg>
