<svg width="16" height="12" viewBox="0 0 16 12" fill="none" xmlns="http://www.w3.org/2000/svg">
<path d="M14.625 0H1.125C0.826631 0 0.540483 0.118526 0.329505 0.329505C0.118526 0.540483 0 0.826631 0 1.125V10.125C0 10.4234 0.118526 10.7095 0.329505 10.9205C0.540483 11.1315 0.826631 11.25 1.125 11.25H14.625C14.9234 11.25 15.2095 11.1315 15.4205 10.9205C15.6315 10.7095 15.75 10.4234 15.75 10.125V1.125C15.75 0.826631 15.6315 0.540483 15.4205 0.329505C15.2095 0.118526 14.9234 0 14.625 0ZM13.3875 1.125L7.875 4.93875L2.3625 1.125H13.3875ZM1.125 10.125V1.63687L7.55438 6.08625C7.64854 6.15157 7.7604 6.18658 7.875 6.18657C7.9896 6.18658 8.10147 6.15157 8.19563 6.08625L14.625 1.63687V10.125H1.125Z" fill="#828282"/>
</svg>
