<svg width="24" height="24" viewBox="0 0 24 24" fill="none" xmlns="http://www.w3.org/2000/svg">
<path d="M12 20C14.1217 20 16.1566 19.1571 17.6569 17.6569C19.1571 16.1566 20 14.1217 20 12C20 9.87827 19.1571 7.84344 17.6569 6.34315C16.1566 4.84285 14.1217 4 12 4C9.87827 4 7.84344 4.84285 6.34315 6.34315C4.84285 7.84344 4 9.87827 4 12C4 14.1217 4.84285 16.1566 6.34315 17.6569C7.84344 19.1571 9.87827 20 12 20ZM12 22C6.477 22 2 17.523 2 12C2 6.477 6.477 2 12 2C17.523 2 22 6.477 22 12C22 17.523 17.523 22 12 22Z" fill="#0ABFE5"/>
<path d="M17 8.94701C16.632 9.10701 16.237 9.21701 15.822 9.26501C16.246 9.01501 16.57 8.61901 16.724 8.14801C16.32 8.38348 15.8791 8.54913 15.42 8.63801C15.2269 8.43558 14.9945 8.27462 14.7372 8.16493C14.4798 8.05524 14.2028 7.99913 13.923 8.00001C12.79 8.00001 11.872 8.90501 11.872 10.02C11.872 10.178 11.89 10.332 11.925 10.48C11.1123 10.4414 10.3166 10.2339 9.58865 9.87056C8.86068 9.50726 8.21643 8.99621 7.697 8.37001C7.51456 8.67711 7.41851 9.02781 7.419 9.38501C7.419 10.085 7.782 10.705 8.332 11.066C8.00644 11.0558 7.68786 10.9691 7.402 10.813V10.838C7.40509 11.3075 7.5708 11.7613 7.87092 12.1224C8.17103 12.4834 8.587 12.7292 9.048 12.818C8.74536 12.898 8.42869 12.9096 8.121 12.852C8.25513 13.2559 8.51167 13.608 8.85502 13.8594C9.19837 14.1108 9.61148 14.2491 10.037 14.255C9.30696 14.8176 8.41064 15.1215 7.489 15.119C7.324 15.119 7.161 15.109 7 15.091C7.94047 15.6863 9.03096 16.0016 10.144 16C13.918 16 15.981 12.922 15.981 10.252L15.974 9.99001C16.3763 9.70729 16.7239 9.3539 17 8.94701Z" fill="#0ABFE5"/>
</svg>
