<svg width="51" height="68" viewBox="0 0 51 68" fill="none" xmlns="http://www.w3.org/2000/svg">
<g clip-path="url(#clip0)">
<path opacity="0.35" fill-rule="evenodd" clip-rule="evenodd" d="M44.9597 0.851935C44.348 0.309794 43.6598 -0.07745 42.8952 0.0774475C42.2835 -0.07745 40.2955 1.31663 40.219 1.31663C39.6838 1.23918 37.8487 0.774487 36.4724 1.70387C35.7843 1.85877 35.0961 2.24601 34.6373 2.78815C34.0256 3.48519 33.7963 4.95672 34.9432 5.26652C35.0961 5.34396 35.3255 5.34396 35.4784 5.34396C35.5549 5.34396 35.6313 5.34396 35.6313 5.34396C35.9372 5.34396 36.1666 5.42141 36.4724 5.42141C36.3195 5.49886 36.0901 5.57631 35.9372 5.73121C35.7078 5.96355 35.5549 6.1959 35.5549 6.5057C35.3255 6.5057 35.1726 6.58315 34.9432 6.66059C34.8667 6.66059 34.7903 6.66059 34.7138 6.73804H34.6373C33.6433 6.3508 32.8022 7.82232 33.7963 8.44192C34.7138 8.98406 35.7843 8.36447 36.7783 8.36447C37.7723 8.36447 38.6898 8.51936 39.6838 8.67426C40.6778 8.90661 41.4424 8.82916 42.2835 8.20957C42.7423 7.82233 43.2775 7.28018 43.4304 6.66059C43.7363 6.66059 44.0421 6.58314 44.348 6.42825C44.7303 6.1959 45.0361 5.73121 45.1126 5.34396C45.1891 5.03417 45.0361 4.72437 44.8067 4.49203C45.0361 4.25968 45.1126 4.10478 45.1126 3.94989C45.2655 3.64009 45.2655 3.3303 45.1891 3.0205C45.6478 2.32346 45.6478 1.39408 44.9597 0.851935Z" fill="#56ACDE"/>
<path opacity="0.35" fill-rule="evenodd" clip-rule="evenodd" d="M30.4317 16.7289C30.2788 16.6515 30.0494 16.6515 29.8965 16.6515C29.8201 16.6515 29.7436 16.6515 29.7436 16.6515C29.4377 16.6515 29.1319 16.574 28.9025 16.574C28.5967 16.574 28.1379 16.7289 27.9085 16.4191C27.6791 16.1868 27.6027 15.877 27.3733 15.6446C27.2204 15.4123 26.991 15.3348 26.6851 15.1799C25.844 14.8701 25.2323 15.1025 24.3913 15.1799C24.009 15.1799 23.5502 15.1799 23.1679 15.4123C23.015 15.4123 22.862 15.4123 22.7091 15.4123C22.0974 15.4123 21.4857 15.3348 20.9505 15.6446C20.5682 15.877 20.2623 16.3417 20.1859 16.7289C20.1094 17.1936 20.4153 17.5034 20.7976 17.7358C20.874 17.8132 21.1799 17.8132 21.4093 17.8906C21.1799 18.0455 20.874 18.2779 20.6446 18.5102C19.88 19.2073 19.7271 20.369 20.5682 21.1435C21.1799 21.6856 21.868 22.0729 22.6326 21.918C23.2443 22.0729 23.856 21.9954 24.3148 21.4533L24.3913 21.3758C24.6207 21.2209 24.85 20.9886 25.0794 20.7563C25.1559 20.7563 25.2323 20.6788 25.3088 20.6788C25.844 20.7563 26.3793 20.8337 26.9145 20.7563C27.6027 20.6788 28.4437 20.6788 29.0554 20.2141C29.7436 20.0592 30.4318 19.672 30.8905 19.1298C31.3493 18.5102 31.5787 17.0387 30.4317 16.7289Z" fill="#56ACDE"/>
<path fill-rule="evenodd" clip-rule="evenodd" d="M29.4378 3.71758C29.4378 4.02738 29.3614 3.87248 29.4378 4.18227C29.4378 4.33717 29.5143 4.41462 29.5143 4.56952L30.126 4.41462C30.0495 3.94993 29.9731 3.56268 29.8202 3.40779C29.8202 3.40779 29.8202 3.40779 29.8966 3.48523L29.9731 3.56268C34.8666 -2.71066 38.5368 2.86565 38.9191 8.44195C39.225 12.934 33.6432 21.3759 30.2789 20.7563C29.8966 20.6789 28.0615 19.3622 27.6028 18.5103C26.0735 17.1162 22.021 14.7153 22.9386 5.96359C23.3209 4.95676 24.0855 3.87248 25.156 3.40779C26.2264 3.02054 27.5263 3.02054 28.5203 3.25289C29.2849 3.48523 29.132 3.56268 29.4378 3.71758Z" fill="#DF0217"/>
<path fill-rule="evenodd" clip-rule="evenodd" d="M31.5023 28.9659C30.8906 27.5718 30.6613 26.2552 30.3554 24.7062C32.0376 24.3964 34.0256 24.1641 35.7077 23.9317C35.9371 25.4032 35.249 27.1846 35.4019 28.6561C34.9431 28.811 33.7962 28.6561 33.261 28.811C32.6493 28.9659 32.1905 29.1208 31.5023 28.9659ZM36.3194 22.6151C36.4723 16.1094 39.3779 6.42829 35.9371 0.851984C35.7077 0.774536 35.4783 0.774536 35.3254 1.00688C35.249 1.16178 35.249 1.47157 35.249 1.62647C36.7017 6.89299 36.8547 13.3212 36.1665 16.6515C36.243 17.9682 35.9371 21.918 35.6313 23.3121C35.3254 23.3896 34.102 23.6994 34.1785 23.1572C34.1785 23.0023 34.1785 22.9249 34.1785 22.77C34.3314 21.4534 34.5608 18.7426 34.4843 18.278C34.102 18.5877 33.8726 18.8201 33.7962 18.975L33.6433 23.5445L33.261 23.6219L32.5728 19.5946C32.4199 18.278 32.114 16.8064 31.8846 15.4898C31.5023 12.7791 30.9671 10.0684 30.5848 7.35768C30.5083 6.66064 30.0496 3.87249 29.8202 3.33034C29.5908 3.098 29.3614 3.2529 29.4379 3.64014C29.4379 3.94993 29.3614 3.79504 29.4379 4.10483C29.7437 5.57636 30.2025 10.2233 30.4319 12.0046C30.6613 13.3987 31.0436 14.7928 31.2729 16.1094C31.3494 16.729 31.8846 19.9044 31.8846 20.2142L32.3434 23.6219C32.114 23.6994 31.5788 23.7768 31.4259 23.6994C31.2729 23.5445 30.5083 21.0661 30.3554 20.6014C30.2789 20.4465 29.8202 20.1367 29.6672 20.2916C29.8202 20.8338 30.0496 21.4534 30.2025 21.9955C30.2789 22.3053 30.4319 22.6151 30.5083 22.9249C30.5848 23.1572 30.8142 23.6994 30.7377 23.8543C30.3554 23.7768 29.7437 22.0729 29.5908 21.8406C29.2849 21.1436 28.9026 20.3691 28.5968 19.672C25.6148 14.6379 24.6972 11.1527 23.6268 5.65381C23.4738 5.34401 23.3209 5.03422 23.0151 5.34401C22.7857 6.19595 22.7857 7.20278 22.9386 8.28706C23.7797 10.1458 26.7617 17.1162 26.9911 17.8133C27.4499 18.7426 28.9026 22.2278 29.4379 23.467C29.6672 24.0092 29.6672 24.4739 29.8202 24.9385C30.126 25.9454 30.8142 29.2757 31.3494 29.7404C32.4963 29.6629 35.8607 29.508 36.0136 29.1208C36.1665 28.7335 36.243 28.1139 36.243 27.6493C36.1665 26.8748 36.243 25.1709 36.243 24.319C36.243 23.9317 36.3194 23.6219 36.3194 23.1572C36.243 23.0023 36.243 22.77 36.3194 22.6151Z" fill="black"/>
<path fill-rule="evenodd" clip-rule="evenodd" d="M28.4437 16.574C28.3673 16.7289 28.2908 16.7289 28.1379 16.8064C27.5262 16.2642 26.4557 14.0957 26.2263 13.1663L26.3792 12.8565C26.4557 12.7791 26.3792 12.8565 26.4557 12.7791C26.838 13.4761 28.2908 16.1093 28.4437 16.574Z" fill="white"/>
<path opacity="0.35" fill-rule="evenodd" clip-rule="evenodd" d="M9.25176 40.6606C9.09884 40.1184 9.02238 39.5763 8.86945 39.0341C8.79299 38.492 8.71653 37.9499 8.71653 37.4852C8.71653 37.0205 8.64007 36.6332 8.64007 36.4009C8.64007 36.0911 8.64007 35.7038 8.64007 35.394C8.56361 35.394 8.41068 35.4715 8.33422 35.4715C8.10483 35.4715 7.95191 35.394 7.72253 35.3166C7.5696 35.2391 7.41668 35.0843 7.26376 35.0068C7.11083 34.8519 7.03437 34.697 6.88145 34.5421C6.95791 34.3098 6.88145 34.0774 6.88145 33.9225C6.19329 33.9225 5.50513 33.8451 4.9699 34.2323C4.51113 34.5421 4.05236 35.1617 3.89944 35.7038C3.74651 36.3234 4.28175 36.7881 4.74052 37.0979C4.89344 37.1754 5.19929 37.2528 5.5816 37.3303C5.19929 37.5626 4.89344 37.795 4.51113 38.1047C3.44067 39.1116 3.28774 40.6606 4.43467 41.6674C5.27575 42.4419 6.11683 42.9066 7.18729 42.7517C8.02837 42.9066 8.86945 42.8291 9.48115 42.2095C9.55761 42.1321 9.55761 42.1321 9.63407 42.0546C9.71053 41.9772 9.71053 41.9772 9.78699 41.8997C9.48115 41.5125 9.40469 41.1252 9.25176 40.6606Z" fill="#56ACDE"/>
<path opacity="0.35" fill-rule="evenodd" clip-rule="evenodd" d="M50.5412 57.0798C50.6177 56.9249 50.6177 56.8475 50.6942 56.77C50.7706 56.5377 50.8471 56.2279 50.7706 55.9955C51.1529 55.4534 51.1529 54.7563 50.5412 54.2142C50.2354 53.9044 49.9295 53.7495 49.5472 53.5946C49.4708 53.9818 49.4708 54.3691 49.3178 54.7563C49.1649 55.3759 49.0885 55.9181 48.8591 56.5377C48.6297 57.3122 48.1709 58.0092 47.5592 58.7837C47.4063 58.9386 47.2534 59.0935 47.1769 59.2484C47.1004 59.3258 47.024 59.4807 46.8711 59.5582C46.7181 59.7131 46.5652 59.868 46.4123 60.0229C46.3358 60.1003 46.2594 60.1778 46.1829 60.2552L46.1064 60.3327C46.1829 60.3327 46.2594 60.3327 46.3358 60.4101C47.1004 60.565 47.7121 60.4876 48.4003 60.0229C48.7826 59.7131 49.1649 59.3258 49.3178 58.7837C49.5472 58.7837 49.8531 58.7062 50.0825 58.6288C50.3883 58.4739 50.6177 58.0866 50.6942 57.7768C50.8471 57.467 50.7706 57.2347 50.5412 57.0798Z" fill="#56ACDE"/>
<path opacity="0.35" fill-rule="evenodd" clip-rule="evenodd" d="M3.74657 56.7699C3.36426 56.2278 2.98195 55.5307 2.75257 54.7563C2.44672 53.9818 2.21734 53.2073 2.06441 52.4328V52.3553C1.6821 52.3553 1.37626 52.4328 1.07041 52.5877C0.6881 52.82 0.382253 53.2847 0.229329 53.7494C0.152868 54.2141 0.458715 54.6014 0.841024 54.8337C0.917485 54.9112 1.22333 54.9112 1.45272 54.9886C1.14687 55.1435 0.917485 55.3758 0.6881 55.6082C-0.0765177 56.3827 -0.229441 57.5444 0.611638 58.3189C1.22333 58.861 1.91149 59.2483 2.67611 59.0934C3.2878 59.2483 3.97596 59.1708 4.43473 58.6287L4.51119 58.5512C4.66411 58.3963 4.8935 58.2414 5.04642 58.0865C4.51119 57.6993 4.12888 57.3121 3.74657 56.7699Z" fill="#56ACDE"/>
<path opacity="0.35" fill-rule="evenodd" clip-rule="evenodd" d="M39.9131 35.0068C40.066 35.549 40.1425 36.1686 40.1425 36.9431C40.1425 37.5626 40.066 38.2597 39.8366 38.9567C39.6837 39.5763 39.6072 40.1184 39.3779 40.6606C39.2249 41.0478 38.9955 41.5125 38.6897 41.8998C38.7662 41.8998 38.8426 41.9772 38.9191 41.9772C39.2249 42.1321 39.6072 42.3645 39.8366 42.6742C40.1425 43.0615 40.2954 43.4487 40.2954 43.9134C40.2954 43.9909 40.2954 44.0683 40.2954 44.2232C40.3719 44.2232 40.5248 44.3007 40.6012 44.3007C41.9011 44.533 42.9716 44.4556 44.042 43.6811C44.7302 43.2164 45.3419 42.4419 45.6477 41.59C46.1065 41.59 46.4888 41.5125 46.8711 41.2802C47.3299 40.9704 47.7886 40.3508 47.9416 39.8087C48.018 39.344 47.7886 38.9567 47.4828 38.7244C47.5593 38.492 47.6357 38.3371 47.7122 38.1822C47.8651 37.795 47.9416 37.3303 47.7886 36.9431C48.4003 36.0137 48.4003 34.7745 47.4063 33.9226C46.5653 33.1481 45.7242 32.6834 44.6537 32.8383C43.8126 32.6834 41.1365 34.4647 41.06 34.5421C40.7542 34.5421 40.1425 34.3872 39.4543 34.3098C39.6837 34.6196 39.7602 34.7745 39.9131 35.0068Z" fill="#56ACDE"/>
<path opacity="0.35" fill-rule="evenodd" clip-rule="evenodd" d="M18.1215 39.0342C18.3509 38.7244 18.5803 38.4146 18.6568 38.0274C18.1215 38.0274 17.7392 37.9499 17.3569 37.795C17.204 37.7176 17.0511 37.6401 16.9746 37.4852C16.8982 37.795 16.7452 38.1048 16.6688 38.4146C16.5159 38.7244 16.4394 39.1117 16.3629 39.4214C16.2865 39.7312 16.21 40.041 16.1335 40.3508C16.8982 40.1185 17.5863 39.6538 18.1215 39.0342Z" fill="#56ACDE"/>
<path opacity="0.35" fill-rule="evenodd" clip-rule="evenodd" d="M12.7691 41.2027H12.8455C12.8455 41.0478 12.7691 40.8929 12.7691 40.738C12.6162 40.041 12.5397 39.0342 12.5397 37.9499C12.5397 37.4852 12.5397 37.0205 12.6162 36.5558C12.6162 36.0137 12.6926 35.549 12.7691 35.0843C12.8455 34.6196 12.922 34.2323 12.9985 33.9225C12.8455 33.8451 12.7691 33.7676 12.6162 33.7676H12.5397C12.4632 34.1549 12.4632 34.6196 12.3868 35.0068C12.3103 35.6264 12.3103 36.246 12.3103 36.8656C12.3103 37.795 12.3868 38.7244 12.4632 39.4214C12.5397 40.041 12.6926 40.6606 12.7691 41.2027Z" fill="#56ACDE"/>
<path d="M22.3269 24.6287C22.6327 24.6287 22.8621 24.7061 23.1679 24.861C23.3973 25.0159 23.6267 25.1708 23.8561 25.3257C24.0855 25.4806 24.2384 25.7129 24.3149 25.9453C24.4678 26.1776 24.4678 26.3325 24.4678 26.4874C24.4678 26.6423 24.3913 26.7198 24.3149 26.7198C24.2384 26.7198 24.0855 26.7972 23.9326 26.7198C23.7796 26.7198 23.6267 26.6423 23.3973 26.6423C23.1679 26.5649 22.9385 26.5649 22.7092 26.5649C22.1739 26.5649 21.5622 26.6423 20.7976 26.7198C20.033 26.7972 19.1919 26.9521 18.2744 27.1845C17.3568 27.3394 16.4393 27.5717 15.4453 27.8815C14.4513 28.1139 13.4573 28.4237 12.4633 28.7334C12.4633 28.8883 12.3868 29.1207 12.3104 29.5079C12.2339 29.8952 12.081 30.4373 11.9281 31.0569C12.3104 30.902 12.6927 30.8246 13.075 30.6697C13.4573 30.5922 13.7631 30.4373 14.069 30.3599C14.3748 30.2824 14.6807 30.205 14.9101 30.205C15.2924 30.205 15.5218 30.205 15.6747 30.205C15.8276 30.205 15.9041 30.2824 16.057 30.3599C16.2099 30.4373 16.2864 30.5148 16.3628 30.5922C16.4393 30.6697 16.5158 30.7471 16.5922 30.902C16.6687 30.9795 16.6687 31.1344 16.6687 31.2118C16.6687 31.2893 16.6687 31.3667 16.5922 31.3667C16.5158 31.3667 16.4393 31.4442 16.3628 31.4442C16.2864 31.4442 16.1335 31.4442 16.057 31.4442C15.9041 31.4442 15.8276 31.4442 15.7511 31.4442C15.5218 31.4442 15.2924 31.5216 15.063 31.599C14.7571 31.6765 14.4513 31.7539 14.069 31.9088C13.6867 32.0637 13.3044 32.2186 12.9221 32.3735C12.5397 32.5284 12.1574 32.7608 11.6987 32.9157C11.6222 33.4578 11.5457 34.0774 11.4693 34.697C11.4693 35.2391 11.4693 35.8587 11.4693 36.5558C11.4693 37.5626 11.5457 38.4145 11.6222 39.189C11.6987 39.9635 11.8516 40.6606 11.9281 41.2027C12.081 41.7448 12.1574 42.2095 12.2339 42.5193C12.3104 42.8291 12.3868 42.984 12.3868 42.984C12.3868 43.0615 12.3104 43.1389 12.1574 43.1389C12.0045 43.2164 11.8516 43.2164 11.6987 43.2164C11.3164 43.2164 11.0105 43.0615 10.7047 42.7517C10.3988 42.4419 10.1694 42.1321 9.94005 41.6674C9.71066 41.2027 9.55774 40.738 9.40481 40.1959C9.25189 39.6537 9.17543 39.1116 9.09897 38.5694C9.02251 38.0273 8.94604 37.5626 8.94604 37.0979C8.94604 36.6332 8.86958 36.3234 8.86958 36.0136C8.86958 35.394 8.86958 34.7744 8.94604 34.1549C8.71666 34.2323 8.56374 34.3872 8.41081 34.3872C8.25789 34.4647 8.18143 34.4647 8.10496 34.4647C8.0285 34.4647 7.87558 34.4647 7.79912 34.3872C7.64619 34.3098 7.56973 34.2323 7.49327 34.1549C7.41681 34.0774 7.34035 33.9225 7.26389 33.8451C7.18742 33.6902 7.18742 33.6127 7.18742 33.4578C7.18742 33.3029 7.41681 33.0706 7.79912 32.8382C8.18143 32.6059 8.71666 32.2961 9.25189 32.0637C9.32835 31.5216 9.40481 31.0569 9.48128 30.6697C9.55774 30.205 9.6342 29.8952 9.78712 29.5854C8.86958 29.8952 8.10496 30.2824 7.34035 30.5922C6.57573 30.9795 5.88757 31.2893 5.35234 31.6765C4.58772 32.1412 4.12895 32.5284 3.74664 32.8382C3.4408 33.2255 3.28787 33.5353 3.28787 33.8451C3.28787 33.9225 3.28787 34 3.21141 34.0774C3.13495 34.1549 3.13495 34.2323 3.05849 34.2323C2.98203 34.2323 2.90556 34.2323 2.90556 34.2323C2.8291 34.1549 2.8291 34.0774 2.8291 34C2.8291 33.3029 3.05849 32.6833 3.4408 32.0637C3.89957 31.4442 4.4348 30.8246 5.19942 30.2824C5.96403 29.7403 6.80511 29.1981 7.72266 28.7334C8.71666 28.2688 9.71066 27.8041 10.7811 27.3394C11.8516 26.9521 12.9221 26.5649 14.069 26.1776C15.2159 25.8678 16.2099 25.558 17.2804 25.3257C18.2744 25.0934 19.2684 24.9385 20.1095 24.7836C20.9505 24.7061 21.7152 24.6287 22.3269 24.6287Z" fill="black"/>
<path d="M17.5096 33.0706C17.739 33.0706 17.9684 33.0706 18.1978 33.0706C18.4272 33.0706 18.6565 33.1481 18.8095 33.2255C19.0388 33.303 19.1918 33.4579 19.2682 33.6128C19.4212 33.7677 19.4212 34.0775 19.4212 34.3872C19.4212 34.7745 19.4212 35.0843 19.3447 35.3941C19.2682 35.7039 19.1918 36.0137 19.1153 36.246C19.0388 36.4784 18.8859 36.7107 18.733 36.8656C18.5801 37.0205 18.4272 37.098 18.1978 37.098C17.739 37.098 17.4331 37.0205 17.1273 36.8656C16.8215 36.7107 16.6685 36.5558 16.6685 36.3235C16.6685 36.246 16.6685 36.0911 16.745 35.8588C16.745 35.6264 16.8215 35.4715 16.8215 35.2392C16.8979 35.0068 16.8979 34.7745 16.9744 34.4647C16.5921 35.2392 16.2862 36.0137 15.9804 36.7107C15.8275 37.0205 15.751 37.4078 15.5981 37.7175C15.4451 38.1048 15.3687 38.4146 15.2922 38.8018C15.2158 39.1891 15.1393 39.4989 15.0628 39.8087C14.9864 40.1185 14.9099 40.5057 14.9099 40.8155C14.9864 41.1253 14.9864 41.3576 15.0628 41.59C15.1393 41.8223 15.1393 41.9772 15.2158 42.1321C15.2922 42.287 15.2922 42.3645 15.2922 42.4419C15.2922 42.5194 15.3687 42.5968 15.3687 42.6743C15.3687 42.7517 15.2922 42.8292 15.1393 42.9066C14.9864 42.9841 14.8335 42.9841 14.6041 42.9841C14.3747 42.9841 14.1453 42.8292 13.9159 42.6743C13.6865 42.5194 13.4571 42.2096 13.2278 41.8223C12.9984 41.4351 12.8454 40.8155 12.6925 40.1185C12.5396 39.4214 12.4631 38.492 12.4631 37.4078C12.4631 36.9431 12.4631 36.4784 12.5396 36.0137C12.5396 35.549 12.6161 35.0843 12.6925 34.6196C12.769 34.1549 12.8454 33.8451 12.9219 33.5353C12.9984 33.2255 13.1513 33.0706 13.3042 33.0706C13.8394 33.0706 14.2982 33.2255 14.5276 33.4579C14.757 33.6902 14.9099 34 14.9099 34.3872C14.9099 34.5421 14.9099 34.7745 14.8334 34.9294C14.8334 35.1617 14.757 35.3166 14.6805 35.549C14.6041 35.7813 14.6041 36.0137 14.5276 36.3235C14.5276 36.6333 14.4511 36.8656 14.4511 37.1754C14.4511 37.795 14.4511 38.3371 14.5276 38.8018C14.6041 38.4146 14.6805 38.0273 14.8334 37.5627C14.9864 37.098 15.0628 36.7107 15.2158 36.246C15.3687 35.7813 15.5216 35.3941 15.6745 34.9294C15.8275 34.5421 16.0568 34.1549 16.2098 33.8451C16.3627 33.5353 16.5156 33.2255 16.6685 33.0706C17.2802 33.1481 17.4331 33.0706 17.5096 33.0706Z" fill="black"/>
<path d="M25.6147 39.7312C25.6147 40.1959 25.6147 40.6606 25.6912 40.9704C25.7676 41.2802 25.7676 41.5125 25.8441 41.7449C25.9205 41.8998 25.9205 42.0547 25.8441 42.1321C25.8441 42.2096 25.6912 42.287 25.5382 42.287C25.2324 42.287 25.003 42.2096 24.6972 42.1321C24.3913 42.0547 24.1619 41.8998 23.9325 41.6674C23.7032 41.4351 23.5502 41.2027 23.3973 40.8155C23.2444 40.5057 23.1679 40.041 23.1679 39.5763C23.1679 39.4214 23.1679 39.344 23.1679 39.1891C23.1679 39.0342 23.1679 38.8793 23.1679 38.7244L21.8681 41.9772C21.8681 42.0547 21.9445 42.1321 21.9445 42.2096C21.9445 42.287 22.021 42.3645 22.021 42.4419C22.021 42.5194 21.9445 42.5968 21.8681 42.5968C21.7151 42.5968 21.5622 42.5968 21.4093 42.5194C21.1799 42.4419 21.027 42.3645 20.7976 42.2096C20.5682 42.0547 20.4153 41.8998 20.1859 41.6674C20.033 41.4351 19.8036 41.1253 19.7271 40.738C19.5742 40.3508 19.5742 39.9636 19.5742 39.4214C19.5742 38.9567 19.5742 38.4146 19.6507 37.8724C19.7271 37.3303 19.7271 36.7882 19.8036 36.246C19.8801 35.7039 19.8801 35.2392 19.9565 34.8519C20.033 34.4647 20.033 34.1549 20.033 34C20.033 33.9226 20.033 33.7677 19.9565 33.6902C19.8801 33.6128 19.8801 33.4579 19.8801 33.3804C19.8801 33.303 19.8801 33.2255 19.9565 33.1481C20.033 33.0706 20.1095 33.0706 20.3388 33.0706C20.5682 33.0706 20.7976 33.0706 21.027 33.1481C21.2564 33.2255 21.4858 33.303 21.6387 33.3804C21.7916 33.4579 22.021 33.6128 22.0975 33.7677C22.2504 33.9226 22.2504 34.0775 22.2504 34.2323C22.2504 34.3872 22.2504 34.6196 22.1739 34.9294C22.0975 35.2392 22.021 35.6264 21.9445 36.0911C21.8681 36.5558 21.7916 37.0205 21.7151 37.5626C21.6387 38.1048 21.6387 38.7244 21.6387 39.2665C21.6387 39.8087 21.6387 40.1959 21.7151 40.5057C21.7151 40.8155 21.7916 41.0478 21.8681 41.2802C21.9445 41.1253 22.021 40.8155 22.1739 40.5057C22.3268 40.1959 22.4798 39.8087 22.5562 39.4989C22.7092 39.1116 22.8621 38.7244 23.015 38.3371C23.1679 37.9499 23.3208 37.5626 23.3973 37.2528C23.3973 36.9431 23.4738 36.6333 23.4738 36.4009C23.4738 36.1686 23.4738 36.0137 23.4738 35.8588C23.4738 35.7039 23.4738 35.549 23.5502 35.3941C23.6267 35.2392 23.7032 35.1617 23.9325 35.1617C24.009 35.1617 24.1619 35.1617 24.3913 35.1617C24.6207 35.1617 24.8501 35.2392 25.0795 35.3166C25.3089 35.3941 25.4618 35.4715 25.6912 35.6264C25.8441 35.7813 25.9206 35.9362 25.9206 36.1686C25.9206 36.3235 25.9205 36.4784 25.8441 36.5558C25.8441 36.7107 25.7676 36.8656 25.7676 37.0979C25.7676 37.3303 25.6912 37.6401 25.6912 38.0273C25.6147 38.5695 25.6147 39.1116 25.6147 39.7312Z" fill="black"/>
<path d="M36.2427 31.9863C36.4721 31.9863 36.6251 32.0637 36.5486 32.1411C36.5486 32.2186 36.3957 32.296 36.1663 32.3735C35.8604 32.4509 35.4017 32.6058 34.8664 32.6833C34.3312 32.7607 33.796 32.9156 33.1078 32.9931C32.4961 33.0705 31.808 33.148 31.1198 33.3029C30.4317 33.3803 29.7435 33.4578 29.0553 33.5352C28.9789 34.1548 28.826 34.7744 28.7495 35.394C28.673 36.0136 28.5201 36.6332 28.4436 37.2528C28.3672 37.8724 28.2907 38.4145 28.2143 38.9566C28.2907 39.5762 28.2907 40.0409 28.2907 40.4282C28.2907 41.2027 28.2907 41.8222 28.3672 42.3644C28.4436 42.9065 28.5201 43.3712 28.5966 43.7585C28.673 44.1457 28.7495 44.3781 28.9024 44.6104C28.9789 44.8427 29.0553 44.9976 29.0553 45.0751C29.0553 45.1525 29.0553 45.23 29.0553 45.3074C28.9789 45.3074 28.9024 45.3849 28.7495 45.3849C28.5201 45.3849 28.2143 45.23 27.9084 44.9976C27.6026 44.7653 27.3732 44.3781 27.0673 43.9134C26.838 43.4487 26.6086 42.8291 26.4556 42.132C26.3027 41.435 26.2263 40.5831 26.2263 39.6537C26.2263 38.8017 26.3027 37.7949 26.4556 36.7881C26.6086 35.7038 26.7615 34.697 26.9144 33.6901C26.5321 33.6901 26.1498 33.6901 25.8439 33.6901C25.5381 33.6901 25.1558 33.6127 24.9264 33.6127C24.5441 33.5352 24.0853 33.4578 23.7795 33.3803C23.3972 33.2254 23.0913 33.148 22.7855 32.9931C22.4796 32.8382 22.1738 32.6833 21.9444 32.5284C21.715 32.3735 21.4856 32.2186 21.2562 32.0637C21.1033 31.9088 21.0269 31.8314 21.0269 31.7539C21.1033 31.6765 21.1798 31.599 21.2562 31.6765C22.0973 31.8314 23.0149 31.9863 24.0853 32.0637C25.0793 32.1412 26.1498 32.2186 27.2203 32.2186L27.2967 31.6765C27.4496 30.9794 27.5261 30.4373 27.6026 29.9726C27.679 29.5079 27.7555 29.1207 27.7555 28.9658C27.7555 28.5785 27.832 28.2687 28.0613 28.1913C28.2907 28.1138 28.5201 28.1138 28.7495 28.1913C28.9789 28.2687 29.2083 28.5011 29.4376 28.7334C29.667 28.9658 29.7435 29.2755 29.7435 29.5853C29.7435 29.7402 29.7435 30.05 29.667 30.3598C29.5906 30.6696 29.5906 31.1343 29.5141 31.599L29.4376 32.1411C30.1258 32.1411 30.8904 32.1411 31.5786 32.1411C32.2667 32.1411 32.8784 32.1412 33.4901 32.0637C34.1018 32.0637 34.637 32.0637 35.0958 31.9863C35.5546 31.9863 35.9369 31.9863 36.2427 31.9863Z" fill="black"/>
<path d="M7.79905 48.4829C8.18136 48.6378 8.56367 48.9476 8.94598 49.4123C9.32829 49.877 9.63414 50.4191 9.86352 51.0387C10.0929 51.6583 10.3223 52.3553 10.3988 53.0524C10.4752 53.7494 10.5517 54.4464 10.4752 55.066C10.3988 55.6856 10.1694 56.2278 9.86352 56.6924C9.55767 57.1571 9.0989 57.4669 8.48721 57.6218C8.25782 57.6993 8.02844 57.6993 7.79905 57.6993C7.56967 57.6993 7.41675 57.6218 7.34028 57.6218C7.26382 57.5444 7.18736 57.5444 7.18736 57.4669C7.18736 57.3895 7.34028 57.312 7.56967 57.2346C7.87552 57.1571 8.1049 56.9248 8.25782 56.4601C8.41075 56.0729 8.41075 55.5307 8.41075 54.9886C8.41075 54.369 8.33429 53.8268 8.18136 53.1298C8.02844 52.5102 7.95198 51.8906 7.72259 51.3485C7.56967 50.8064 7.41675 50.3417 7.26382 50.0319C7.1109 49.5672 7.03444 49.4123 6.88151 49.4123C6.72859 49.4897 6.57567 49.6446 6.42274 49.9544C6.26982 50.2642 6.19336 50.574 6.1169 51.0387C6.04043 51.5034 5.96397 51.9681 5.96397 52.4328C5.96397 52.9749 5.88751 53.4396 5.88751 53.9043C5.88751 54.369 5.88751 54.8337 5.88751 55.2209C5.88751 55.6082 5.88751 55.918 5.88751 56.1503C6.04043 56.3827 6.26982 56.615 6.42274 56.7699C6.57567 56.9248 6.72859 57.0797 6.80505 57.1571C6.88151 57.312 6.88151 57.3895 6.88151 57.4669C6.88151 57.5444 6.80505 57.5444 6.72859 57.5444C6.1169 57.6993 5.58166 57.6218 5.04643 57.3895C4.58766 57.1571 4.20535 56.7699 3.82304 56.2278C3.44073 55.6856 3.13489 55.066 2.9055 54.369C2.67612 53.672 2.44673 52.8975 2.21735 52.123C2.14088 51.7357 2.06442 51.3485 1.98796 50.8838C1.9115 50.4191 1.83504 49.9544 1.75858 49.4897C1.68211 49.025 1.60565 48.5603 1.60565 48.1731C1.52919 47.7084 1.52919 47.3212 1.45273 47.0114C1.37627 46.6241 1.37627 46.3918 1.37627 46.1594C1.37627 45.9271 1.2998 45.8496 1.2998 45.7722C1.2998 45.6947 1.2998 45.6173 1.2998 45.5398C1.2998 45.4624 1.37627 45.3849 1.52919 45.3075C1.60565 45.3075 1.75858 45.3075 1.98796 45.3075C2.21735 45.3075 2.44673 45.3849 2.59965 45.3849C2.82904 45.4624 3.05842 45.5398 3.21135 45.6173C3.36427 45.6947 3.5172 45.8496 3.5172 46.0045C3.5172 46.1594 3.59366 46.4692 3.59366 46.8565C3.59366 47.3212 3.67012 47.8633 3.74658 48.4829C3.82304 49.1025 3.8995 49.877 4.05243 50.7289C4.20535 51.5808 4.35828 52.4328 4.58766 53.3622C4.74058 53.8269 4.81705 54.2915 4.96997 54.6788C5.12289 55.066 5.27582 55.3758 5.42874 55.6082C5.35228 55.1435 5.35228 54.6013 5.35228 53.9817C5.35228 53.3622 5.35228 52.6651 5.35228 52.0455C5.35228 51.4259 5.42874 50.8064 5.5052 50.2642C5.58166 49.7221 5.65812 49.3348 5.81105 49.1799C5.88751 49.025 6.04043 48.8701 6.26982 48.7927C6.42274 48.7152 6.65213 48.6378 6.88151 48.5603C7.1109 48.5603 7.26382 48.4829 7.49321 48.4829C7.56967 48.4829 7.72259 48.4829 7.79905 48.4829Z" fill="black"/>
<path d="M17.0508 52.4328C17.0508 52.3553 17.1273 52.2779 17.1273 52.2779C17.2038 52.2779 17.2038 52.2779 17.2802 52.2779C17.3567 52.2779 17.3567 52.3553 17.3567 52.3553C17.3567 52.4328 17.3567 52.5102 17.3567 52.5877C17.3567 52.6651 17.2802 52.82 17.2802 53.0524C17.2038 53.2847 17.1273 53.5945 17.0508 53.9043C16.8979 54.2141 16.8215 54.6013 16.5921 54.9886C16.4391 55.3758 16.2098 55.7631 15.9804 56.0729C15.751 56.3827 15.4451 56.6925 15.0628 56.9248C14.757 57.1572 14.2982 57.2346 13.9159 57.312C13.3042 57.312 12.769 57.2346 12.3102 57.0023C11.8514 56.7699 11.3927 56.5376 11.0868 56.1503C10.781 55.7631 10.4751 55.3758 10.3222 54.9886C10.1693 54.5239 10.0164 54.1367 10.0164 53.672C10.0164 53.1298 10.0164 52.5877 10.0928 52.0455C10.1693 51.5034 10.3222 51.0387 10.4751 50.574C10.6281 50.1093 10.781 49.7221 11.0104 49.4123C11.2397 49.1025 11.3927 48.8701 11.5456 48.6378C11.6985 48.4829 11.9279 48.328 12.1573 48.2505C12.3867 48.1731 12.6925 48.0956 12.9984 48.0956C13.3042 48.0956 13.5336 48.0956 13.763 48.0956C13.9924 48.0956 14.2218 48.1731 14.3747 48.2505C14.6041 48.328 14.8334 48.5603 15.0628 48.9476C15.2158 49.3348 15.3687 49.7221 15.3687 50.1868C15.4451 51.1161 15.2922 51.7357 14.9099 52.2779C14.5276 52.7426 14.1453 52.9749 13.5336 53.0524C13.3042 53.0524 13.1513 53.0524 12.9219 53.0524C12.6925 53.0524 12.4631 52.9749 12.3102 52.8975C12.3102 53.2847 12.3867 53.7494 12.4631 54.1367C12.6161 54.5239 12.769 54.9111 12.9219 55.2209C13.0748 55.5307 13.3042 55.7631 13.5336 55.9954C13.763 56.1503 13.9924 56.3052 14.2218 56.2278C14.6041 56.2278 14.9099 56.1503 15.1393 55.918C15.4451 55.7631 15.6745 55.5307 15.8275 55.2209C16.0568 54.9886 16.2098 54.6788 16.3627 54.369C16.5156 54.0592 16.5921 53.7494 16.745 53.5171C16.8215 53.2073 16.8979 52.9749 16.9744 52.82C17.0508 52.5877 17.0508 52.4328 17.0508 52.4328ZM13.763 49.5672C13.5336 49.5672 13.3042 49.6446 13.1513 49.7995C12.9984 49.9544 12.8454 50.1868 12.6925 50.4191C12.5396 50.6515 12.4631 50.9613 12.3867 51.3485C12.3102 51.6583 12.2337 52.0455 12.2337 52.4328C12.6161 52.5877 12.9219 52.5877 13.1513 52.5102C13.3807 52.4328 13.6101 52.2779 13.763 52.0455C13.9159 51.8132 14.0688 51.5808 14.0688 51.271C14.1453 50.9612 14.1453 50.7289 14.1453 50.4191C14.1453 50.1868 14.0688 49.9544 13.9924 49.7221C13.9924 49.6446 13.9159 49.5672 13.763 49.5672Z" fill="black"/>
<path d="M23.9326 48.7927C23.9326 48.9476 23.9326 49.1025 23.8561 49.4123C23.8561 49.7221 23.7796 50.0318 23.7032 50.3416C23.6267 50.7289 23.6267 51.0387 23.5502 51.5034C23.4738 51.8906 23.4738 52.2779 23.3973 52.6651C23.3209 53.0523 23.3209 53.3621 23.3209 53.7494C23.3209 54.0592 23.2444 54.369 23.3209 54.6013C23.3209 55.2209 23.3973 55.7631 23.4738 56.0728C23.5502 56.3826 23.5502 56.6924 23.6267 56.8473C23.7032 57.0022 23.7032 57.1571 23.7796 57.2346C23.8561 57.312 23.8561 57.3895 23.8561 57.5444C23.8561 57.6993 23.7032 57.7767 23.4738 57.7767C23.2444 57.7767 22.9386 57.6993 22.5562 57.5444C22.2504 57.3895 21.9445 57.0797 21.6387 56.6924C21.3329 56.3052 21.1799 55.6856 21.1799 54.9886C21.1799 54.5239 21.1799 53.9817 21.1799 53.517C21.1799 52.9749 21.1799 52.5102 21.2564 52.0455C21.2564 51.5808 21.3329 51.1161 21.4093 50.6514C21.4858 50.1867 21.4858 49.7995 21.5622 49.4897C21.4858 49.7995 21.3329 50.1867 21.1799 50.6514C21.027 51.1161 20.9505 51.6583 20.7976 52.123C20.6447 52.6651 20.4918 53.2072 20.4153 53.7494C20.2624 54.2915 20.1095 54.8337 20.033 55.2984C19.8801 55.7631 19.8036 56.2277 19.6507 56.5375C19.4978 56.9248 19.4213 57.1571 19.3448 57.312C19.3448 57.3895 19.2684 57.4669 19.1919 57.4669H19.1155C19.039 57.4669 18.9625 57.5444 18.8861 57.5444C18.5038 57.5444 18.1215 57.4669 17.8921 57.1571C17.5862 56.8473 17.3568 56.5375 17.2039 56.0728C17.051 55.6856 16.8981 55.2209 16.7451 54.6788C16.6687 54.1366 16.5922 53.6719 16.5158 53.2847C16.4393 52.82 16.4393 52.4328 16.4393 52.123C16.4393 51.8132 16.4393 51.6583 16.4393 51.5808C16.4393 51.5034 16.4393 51.4259 16.4393 51.4259L16.3628 51.3485L16.2864 51.271C16.2864 51.271 16.2864 51.1936 16.2864 51.1161C16.2864 51.0387 16.4393 50.9612 16.6687 50.8838C16.8981 50.8063 17.2039 50.8063 17.5098 50.8063C17.8156 50.8063 18.1215 50.8838 18.3508 51.0387C18.5802 51.1936 18.7332 51.3485 18.7332 51.6583C18.7332 51.7357 18.7332 51.8906 18.7332 52.123C18.7332 52.3553 18.7332 52.6651 18.7332 52.8975C18.7332 53.2072 18.7332 53.4396 18.7332 53.7494C18.7332 54.0592 18.7332 54.2141 18.7332 54.369C18.7332 54.6013 18.7332 54.8337 18.8096 54.9886C18.8096 55.1435 18.8861 55.3758 18.8861 55.5307C18.9625 55.1435 19.039 54.7562 19.1919 54.2915C19.3448 53.8268 19.4978 53.3621 19.5742 52.82C19.7272 52.2779 19.8801 51.8132 20.033 51.271C20.1859 50.7289 20.4153 50.2642 20.5682 49.877C20.7212 49.4123 20.9505 49.025 21.1799 48.7152C21.4093 48.4054 21.5622 48.1731 21.7916 48.0182C21.7916 48.0182 21.8681 47.9407 21.9446 47.9407H22.021H22.0975C22.1739 47.9407 22.1739 47.9407 22.2504 47.9407C22.3269 47.9407 22.3269 47.9407 22.4033 47.9407C22.6327 47.9407 22.7856 47.9407 22.8621 48.0182C23.1679 48.0956 23.3973 48.1731 23.6267 48.328C23.8561 48.4054 23.9326 48.5603 23.9326 48.7927Z" fill="black"/>
<path d="M32.1138 44.7654C32.1138 44.9203 32.0373 45.2301 31.8844 45.7723C31.7315 46.3144 31.5785 46.934 31.4256 47.7085C31.2727 48.483 31.1198 49.3349 30.9668 50.2643C30.8139 51.1937 30.7375 52.1231 30.7375 53.0524C30.7375 54.1367 30.7375 55.0661 30.8139 55.8406C30.8904 56.6151 30.9668 57.2347 30.9668 57.6994C31.0433 58.1641 31.1198 58.5513 31.1962 58.8611C31.2727 59.1709 31.3492 59.3258 31.3492 59.4807C31.3492 59.6356 31.3492 59.713 31.3492 59.713C31.3492 59.713 31.2727 59.7905 31.1198 59.7905C30.7375 59.7905 30.4316 59.713 30.2022 59.4807C29.9728 59.3258 29.7435 59.0934 29.5141 58.7836C29.2847 58.5513 29.1318 58.2415 29.0553 57.9317C28.9024 57.6219 28.8259 57.3121 28.7495 57.0798C28.673 56.8474 28.5965 56.6151 28.5965 56.3827C28.5965 56.2278 28.5201 56.0729 28.5201 56.0729C28.5201 56.0729 28.4436 56.1504 28.2907 56.3827C28.1378 56.6151 27.9848 56.8474 27.8319 57.0798C27.6025 57.3121 27.3731 57.5445 27.1438 57.7768C26.8379 58.0092 26.6085 58.0866 26.2262 58.0866C25.9204 58.0866 25.5381 58.0092 25.2322 57.9317C24.9264 57.7768 24.6205 57.6219 24.3911 57.3896C24.1617 57.1572 23.9324 56.77 23.7794 56.3827C23.6265 55.9955 23.55 55.4534 23.55 54.9112C23.55 54.524 23.55 54.1367 23.6265 53.672C23.703 53.2073 23.7794 52.8201 23.9324 52.3554C24.0853 51.8907 24.2382 51.5035 24.4676 51.1162C24.697 50.729 24.9264 50.3417 25.1557 50.0319C25.4616 49.7221 25.7674 49.4898 26.0733 49.2575C26.3791 49.1026 26.7614 48.9477 27.2202 48.9477C27.679 48.9477 28.0613 48.9477 28.3671 49.0251C28.673 49.0251 28.9024 49.18 29.0553 49.3349C29.1318 48.7153 29.2082 48.0957 29.2847 47.3987C29.3611 46.7791 29.4376 46.237 29.5141 45.6948C29.5905 45.1527 29.667 44.7654 29.7435 44.4556C29.8199 44.1458 29.8199 43.9909 29.8199 43.9135C29.8199 43.836 29.8199 43.7586 29.8964 43.6811C29.8964 43.6037 30.0493 43.5262 30.2022 43.5262C30.2787 43.5262 30.4316 43.5262 30.661 43.6037C30.8904 43.6811 31.0433 43.7586 31.2727 43.836C31.5021 43.9135 31.655 44.0684 31.8079 44.2233C32.0373 44.4556 32.1138 44.6105 32.1138 44.7654ZM28.8259 53.1299C28.8259 52.975 28.8259 52.7426 28.8259 52.5103C28.8259 52.278 28.8259 52.0456 28.9024 51.7358C28.7495 51.7358 28.673 51.7358 28.5201 51.7358C28.4436 51.7358 28.3671 51.6584 28.3671 51.5809C28.3671 51.5035 28.3671 51.3486 28.4436 51.1162C28.4436 50.9613 28.5201 50.729 28.5201 50.4966C28.5201 50.2643 28.5201 50.1094 28.4436 49.9545C28.3671 49.7996 28.2907 49.7221 28.1378 49.7221C27.8319 49.7221 27.5261 49.877 27.2202 50.2643C26.9144 50.5741 26.685 51.0388 26.5321 51.6584C26.3027 52.2005 26.1498 52.8975 26.0733 53.5946C25.9204 54.3691 25.9204 55.0661 25.9204 55.918C25.9204 56.0729 25.9204 56.2278 25.9968 56.4602C26.0733 56.6151 26.0733 56.8474 26.1498 57.0023C26.2262 57.1572 26.3027 57.3121 26.4556 57.3896C26.5321 57.467 26.685 57.5445 26.8379 57.5445C26.9144 57.5445 26.9908 57.467 27.1438 57.3121C27.2967 57.1572 27.4496 56.9249 27.6025 56.6151C27.7554 56.3053 27.9084 55.9955 28.0613 55.6857C28.2142 55.3759 28.3671 54.9887 28.5201 54.6789C28.673 54.3691 28.7495 54.0593 28.8259 53.7495C28.7495 53.5171 28.8259 53.2848 28.8259 53.1299Z" fill="black"/>
<path d="M37.0837 54.9886C37.0837 54.9112 37.1602 54.8337 37.1602 54.7563C37.2367 54.6788 37.2367 54.6788 37.3131 54.6788C37.3896 54.6788 37.3896 54.7563 37.3896 54.7563C37.3896 54.8337 37.4661 54.8337 37.4661 54.9112C37.4661 55.0661 37.3896 55.2984 37.3896 55.6082C37.3131 55.918 37.2367 56.2278 37.1602 56.6151C37.0837 57.0023 36.9308 57.3895 36.8544 57.7768C36.7014 58.164 36.625 58.5513 36.4721 58.8611C36.3191 59.1709 36.1662 59.4807 36.0133 59.713C35.8604 59.9453 35.631 60.0228 35.478 60.1002C34.9428 60.1777 34.484 60.0228 34.1017 59.7904C33.7194 59.4807 33.4136 59.0934 33.1842 58.6287C32.9548 58.164 32.8019 57.6219 32.649 57.1572C32.496 56.6151 32.4196 56.1504 32.4196 55.7631C32.3431 55.2984 32.3431 54.8337 32.2666 54.5239C32.2666 54.1367 32.1902 53.9044 32.1902 53.672C32.1902 53.4397 32.1902 53.2073 32.1902 53.0524C32.1902 52.8975 32.1902 52.7426 32.1902 52.6652C32.1902 52.5103 32.2666 52.3554 32.496 52.2779C32.7254 52.2005 32.9548 52.2005 33.2607 52.2779C33.5665 52.3554 33.7959 52.4328 34.0253 52.5877C34.2547 52.7426 34.4076 52.8975 34.4076 53.1299C34.4076 53.2848 34.4076 53.4397 34.484 53.672C34.484 53.8269 34.484 54.0593 34.5605 54.2916C34.5605 54.5239 34.5605 54.7563 34.637 54.9112C34.637 55.1435 34.637 55.2984 34.7134 55.5308C34.8664 56.4602 35.0193 57.1572 35.2487 57.6993C35.478 58.2415 35.631 58.7062 35.8604 59.016C35.9368 58.9385 36.0897 58.7836 36.1662 58.6287C36.2427 58.3964 36.3956 58.164 36.4721 57.9317C36.5485 57.6993 36.7014 57.3895 36.7779 57.0797C36.8544 56.77 36.9308 56.4602 37.0073 56.2278C37.0837 55.9955 37.1602 55.7631 37.1602 55.5308C37.0073 55.221 37.0837 55.0661 37.0837 54.9886Z" fill="black"/>
<path d="M33.4137 55.221C33.4137 55.1436 33.4901 55.0661 33.4901 54.9887C33.5666 54.9887 33.6431 54.9887 33.6431 54.9887C33.7195 54.9887 33.7195 55.0661 33.7195 55.0661C33.7195 55.1435 33.7195 55.1436 33.7195 55.221C33.7195 55.3759 33.6431 55.5308 33.5666 55.8406C33.4901 56.1504 33.4137 56.4602 33.2608 56.77C33.1078 57.0798 33.0314 57.467 32.8784 57.8543C32.7255 58.2415 32.5726 58.5513 32.4197 58.8611C32.2668 59.1709 32.0374 59.4032 31.8844 59.6356C31.7315 59.8679 31.5021 59.9454 31.3492 59.9454C30.814 59.9454 30.4317 59.7905 30.0494 59.4807C29.7435 59.1709 29.4377 58.7836 29.2847 58.319C29.1318 57.8543 28.9789 57.3896 28.9024 56.8474C28.826 56.3053 28.826 55.918 28.7495 55.5308C28.7495 55.0661 28.7495 54.6789 28.7495 54.2916C28.7495 53.9818 28.7495 53.672 28.7495 53.4397C28.7495 53.2073 28.7495 53.0524 28.826 52.8975C28.826 52.7426 28.826 52.6652 28.826 52.5103C28.826 52.3554 28.9024 52.2005 29.1318 52.2005C29.3612 52.2005 29.5906 52.2005 29.82 52.2779C30.0494 52.3554 30.3552 52.5103 30.5081 52.6652C30.7375 52.8201 30.814 52.975 30.814 53.2073C30.814 53.3622 30.814 53.5171 30.814 53.7495C30.814 53.9044 30.814 54.1367 30.814 54.3691C30.814 54.6014 30.814 54.7563 30.814 54.9887C30.814 55.221 30.814 55.3759 30.814 55.5308C30.814 56.3827 30.9669 57.1572 31.1198 57.6994C31.2728 58.2415 31.4257 58.7062 31.5786 59.016C31.6551 58.9385 31.808 58.8611 31.9609 58.6287C32.1138 58.4738 32.1903 58.2415 32.3432 58.0092C32.4961 57.7768 32.5726 57.467 32.7255 57.2347C32.8784 56.9249 32.9549 56.6925 33.0314 56.4602C33.1078 56.2278 33.1843 55.9955 33.2608 55.8406C33.3372 55.4533 33.4137 55.2985 33.4137 55.221Z" fill="black"/>
<path d="M45.9535 46.2369C46.1829 46.2369 46.3358 46.3144 46.2594 46.3918C46.2594 46.4693 46.1065 46.5467 45.8771 46.6242C45.5712 46.7016 45.1124 46.8565 44.5772 46.934C44.042 47.0114 43.5068 47.1663 42.8186 47.2438C42.2069 47.3212 41.5187 47.3987 40.8306 47.5536C40.1424 47.631 39.4543 47.7085 38.7661 47.7859C38.6897 48.4055 38.5367 49.0251 38.4603 49.6447C38.3838 50.2643 38.2309 50.8839 38.1544 51.5034C38.078 52.123 38.0015 52.6652 37.925 53.2073C37.8486 53.7495 37.8486 54.2141 37.8486 54.6788C37.8486 55.4533 37.8486 56.0729 37.925 56.6151C38.0015 57.1572 38.078 57.6219 38.1544 58.0091C38.2309 58.3964 38.3074 58.6287 38.4603 58.8611C38.5367 59.0934 38.6132 59.2483 38.6132 59.3258C38.6132 59.4032 38.6132 59.4807 38.6132 59.5581C38.5367 59.5581 38.4603 59.6356 38.3074 59.6356C38.078 59.6356 37.7721 59.4807 37.4663 59.2483C37.1604 59.016 36.931 58.6287 36.6252 58.164C36.3958 57.6993 36.1664 57.0798 36.0135 56.3827C35.8606 55.6857 35.7841 54.8337 35.7841 53.9044C35.7841 53.0524 35.8606 52.0456 36.0135 51.0387C36.1664 49.9545 36.3193 48.9476 36.4723 47.9408C36.09 47.9408 35.7077 47.9408 35.4018 47.9408C35.096 47.9408 34.7137 47.8633 34.4843 47.8633C34.102 47.7859 33.6432 47.7085 33.3373 47.631C32.955 47.4761 32.6492 47.3987 32.3433 47.2438C32.0375 47.0889 31.7316 46.934 31.5023 46.7791C31.2729 46.6242 31.0435 46.4693 30.8141 46.3144C30.6612 46.1595 30.5847 46.082 30.5847 46.0046C30.6612 45.9271 30.7376 45.8497 30.8141 45.9271C31.6552 46.082 32.5727 46.2369 33.6432 46.3144C34.6372 46.3918 35.7077 46.4693 36.7781 46.4693L36.8546 45.9271C37.0075 45.2301 37.084 44.6879 37.1604 44.2233C37.2369 43.7586 37.3134 43.4488 37.3134 43.2164C37.3134 42.8292 37.3898 42.5194 37.6192 42.4419C37.8486 42.3645 38.078 42.3645 38.3074 42.4419C38.5367 42.5194 38.7661 42.7517 38.9955 42.9841C39.2249 43.2164 39.3014 43.5262 39.3014 43.836C39.3014 43.9909 39.3014 44.3007 39.2249 44.6105C39.1484 44.9203 39.1484 45.385 39.072 45.8497L38.9955 46.3918C39.6837 46.3918 40.4483 46.3918 41.1364 46.3918C41.8246 46.3918 42.4363 46.3918 43.048 46.3144C43.6597 46.3144 44.1949 46.3144 44.6537 46.2369C45.2654 46.2369 45.6477 46.2369 45.9535 46.2369Z" fill="black"/>
<path fill-rule="evenodd" clip-rule="evenodd" d="M29.4377 37.3303C29.6671 36.7882 30.1259 36.246 30.7376 36.0911C31.3493 35.9362 32.0374 35.9362 32.5727 36.1686C32.802 36.246 32.8785 36.3235 32.955 36.3235L33.2608 36.4784L33.3373 36.4009C33.3373 36.3235 33.3373 36.3235 33.3373 36.3235L33.4137 36.4009C36.2428 33.2255 38.0779 36.4009 38.0779 39.344C38.0779 41.7449 34.7901 46.082 32.955 45.6173C32.802 45.5399 31.808 44.7654 31.5787 44.3007C30.6611 43.4487 28.5966 41.9772 29.4377 37.3303Z" fill="#DF0217"/>
<path d="M34.1784 45.3075C37.2369 43.139 39.072 39.4989 38.6897 35.7039C38.3838 32.0638 34.1784 34.3098 32.955 36.0137C32.4963 36.7107 33.7197 36.8656 34.0255 36.4009C34.5607 35.6264 36.4723 33.5353 37.3134 35.549C37.6957 36.4784 37.3898 37.795 37.2369 38.7244C36.8546 41.0478 35.2489 43.2939 33.3373 44.6105C32.6492 45.1526 33.7197 45.6173 34.1784 45.3075Z" fill="black"/>
<path d="M33.8725 36.5558C32.4197 35.0069 29.5906 36.0137 28.9025 37.795C28.2908 39.2665 28.6731 41.5126 29.6671 42.7517C30.6611 43.9909 31.8845 44.688 32.955 45.6948C33.1079 45.8497 33.949 45.5399 33.7196 45.385C32.4962 44.1458 31.1199 43.5262 30.1259 41.9773C29.5906 41.2028 29.5142 40.1959 29.4377 39.2665C29.3613 37.4078 31.1963 34.9294 33.0314 36.7882C33.2608 37.098 34.0254 36.7882 33.8725 36.5558Z" fill="black"/>
<path fill-rule="evenodd" clip-rule="evenodd" d="M38.919 53.0523C39.1484 52.5102 39.6072 51.9681 40.2189 51.8132C40.8305 51.6583 41.5187 51.6583 42.0539 51.8906C42.2833 51.9681 42.3598 52.0455 42.4362 52.0455L42.7421 52.2004L42.8186 52.123C42.8186 52.0455 42.8186 52.0455 42.8186 52.0455L42.895 52.123C45.7241 48.9476 47.5592 52.123 47.5592 55.066C47.5592 57.4669 44.2713 61.804 42.4362 61.3393C42.2833 61.2619 41.2893 60.4874 41.0599 60.0227C40.2189 59.1708 38.1544 57.6992 38.919 53.0523Z" fill="#DF0217"/>
<path d="M43.7361 60.9521C46.7945 58.7835 48.6296 55.2209 48.2473 51.4259C47.865 47.7084 43.6596 50.1867 42.4362 51.8906C42.0539 52.4327 43.3537 52.3553 43.6596 51.968C44.4242 50.8063 46.4122 49.4122 46.9474 51.8131C47.1768 52.82 46.871 54.0592 46.6416 55.066C46.1828 57.0797 44.5771 59.2482 42.8185 60.4874C42.2068 60.9521 43.2773 61.2619 43.7361 60.9521Z" fill="black"/>
<path d="M43.4301 52.2779C41.9009 50.7289 39.1483 51.6583 38.4601 53.5171C37.8484 55.1435 38.3836 57.0797 39.2247 58.5512C40.0658 59.9453 41.4421 60.41 42.5126 61.4943C42.7419 61.7266 43.5066 61.4168 43.2772 61.1845C42.3596 60.2551 41.2127 59.6355 40.3716 58.6287C39.607 57.7768 39.3012 56.6925 39.0718 55.6082C38.9953 55.0661 39.0718 54.5239 39.1483 53.9818C39.3776 52.4328 41.4421 51.426 42.6655 52.5877C42.8184 52.82 43.6595 52.5102 43.4301 52.2779Z" fill="black"/>
<path fill-rule="evenodd" clip-rule="evenodd" d="M31.7317 42.4419C31.6552 42.5193 31.6552 42.5193 31.5023 42.5193C31.2729 42.1321 30.8906 40.8154 30.8906 40.1958L31.0435 40.041C31.12 39.9635 31.0435 40.0409 31.12 39.9635C31.1965 40.5056 31.7317 42.2095 31.7317 42.4419Z" fill="white"/>
<path fill-rule="evenodd" clip-rule="evenodd" d="M41.5186 58.6287C41.4421 58.7062 41.4421 58.7062 41.3657 58.7836C41.0598 58.4738 40.3717 57.2346 40.2188 56.6925L40.2952 56.5376C40.2952 56.4601 40.2952 56.5376 40.2952 56.4601C40.5246 56.8474 41.4421 58.3964 41.5186 58.6287Z" fill="white"/>
<path fill-rule="evenodd" clip-rule="evenodd" d="M32.1903 49.3349C32.2667 49.18 32.4196 49.0251 32.5726 48.9476C32.7255 48.8702 32.9549 48.9476 33.1078 48.9476C33.1843 48.9476 33.1843 48.9476 33.1843 49.0251H33.2607C34.1018 48.0183 34.7135 49.0251 34.7135 49.9545C34.7135 50.729 33.7195 52.0456 33.1843 51.8907C33.1078 51.8907 32.802 51.6583 32.7255 51.5034C32.5726 51.1937 31.8844 50.729 32.1903 49.3349Z" fill="#DF0217"/>
<path fill-rule="evenodd" clip-rule="evenodd" d="M32.9548 51.0388C32.9548 51.0388 32.8784 51.0388 32.9548 51.0388C32.8019 50.9614 32.5725 50.5741 32.5725 50.4192V50.3418C32.649 50.4967 32.8784 50.9614 32.9548 51.0388Z" fill="white"/>
<path d="M1.37622 65.9089H1.91145V66.5285H1.37622V65.9089Z" fill="#737277"/>
<path d="M6.95799 65.3668H6.57568V64.9796H6.95799V64.7472C6.95799 64.4375 7.03445 64.1277 7.18738 63.9728C7.3403 63.8179 7.56969 63.7404 7.79907 63.7404C7.87553 63.7404 7.95199 63.7404 8.02846 63.7404C8.10492 63.7404 8.18138 63.7404 8.25784 63.8179V64.2051C8.18138 64.2051 8.10492 64.1277 8.02846 64.1277C7.95199 64.1277 7.87553 64.1277 7.79907 64.1277C7.49322 64.1277 7.26384 64.36 7.26384 64.7472V64.9796H8.18138V65.3668H7.41676V67.9226H6.95799V65.3668Z" fill="#737277"/>
<path d="M11.0869 68C10.9339 68 10.781 68 10.6281 67.9226C10.4752 67.8451 10.3987 67.7677 10.2458 67.6902C10.1693 67.6128 10.0929 67.4579 10.0164 67.303C9.93994 67.1481 9.93994 66.9932 9.93994 66.8383V64.9795H10.3987V66.6834C10.3987 66.9932 10.4752 67.1481 10.6281 67.303C10.781 67.4579 10.9339 67.5353 11.2398 67.5353C11.3927 67.5353 11.4692 67.5354 11.6221 67.4579C11.6986 67.3805 11.8515 67.3805 11.9279 67.303C12.0044 67.2256 12.0809 67.1481 12.0809 66.9932C12.1573 66.9158 12.1573 66.7609 12.1573 66.606V64.9021H12.6161V67.9226H12.1573V67.3805C12.0809 67.5354 11.9279 67.6902 11.775 67.7677C11.5456 67.9226 11.3163 68 11.0869 68Z" fill="#737277"/>
<path d="M14.6805 64.9796H15.1392V65.5217C15.2157 65.3668 15.3686 65.2119 15.5215 65.1344C15.6745 65.057 15.9039 64.9796 16.1332 64.9796C16.2862 64.9796 16.4391 64.9796 16.592 65.057C16.7449 65.1344 16.8214 65.2119 16.9743 65.2893C17.0508 65.3668 17.1272 65.5217 17.2037 65.6766C17.2802 65.8315 17.2802 65.9864 17.2802 66.1413V68.0001H16.8214V66.2962C16.8214 65.9864 16.7449 65.8315 16.592 65.6766C16.4391 65.5217 16.2862 65.4442 15.9803 65.4442C15.8274 65.4442 15.7509 65.4442 15.598 65.5217C15.5215 65.5991 15.3686 65.5991 15.2922 65.6766C15.2157 65.754 15.1392 65.8315 15.1392 65.9864C15.0628 66.0638 15.0628 66.2187 15.0628 66.3736V68.0775H14.604V64.9796H14.6805Z" fill="#737277"/>
<path d="M20.5683 68C20.4153 68 20.1859 68 20.033 67.9226C19.8801 67.8451 19.7272 67.7677 19.5742 67.6128C19.4213 67.4579 19.3449 67.303 19.2684 67.1481C19.1919 66.9932 19.1155 66.7609 19.1155 66.5285C19.1155 66.2962 19.1919 66.0638 19.2684 65.9089C19.3449 65.754 19.4213 65.5217 19.5742 65.4442C19.7272 65.2893 19.8801 65.2119 20.033 65.1344C20.1859 65.057 20.3389 65.057 20.5683 65.057C20.7212 65.057 20.7976 65.057 20.9506 65.1344C21.027 65.1344 21.1799 65.2119 21.2564 65.2893C21.3329 65.3668 21.4093 65.4442 21.4858 65.5217C21.5623 65.5991 21.6387 65.6766 21.7152 65.754V63.9727H22.174V68.1549H21.7152V67.3804C21.6387 67.4579 21.5623 67.5353 21.4858 67.6128C21.4093 67.6902 21.3329 67.7677 21.2564 67.8451C21.1799 67.9226 21.027 67.9226 20.9506 68C20.7976 68 20.7212 68 20.5683 68ZM20.6447 67.6128C20.7976 67.6128 20.9506 67.6128 21.027 67.5353C21.1799 67.4579 21.2564 67.3804 21.3329 67.303C21.4093 67.2256 21.4858 67.0707 21.5623 66.9158C21.6387 66.7609 21.6387 66.606 21.6387 66.4511C21.6387 66.2962 21.6387 66.1413 21.5623 65.9864C21.4858 65.8315 21.4093 65.754 21.3329 65.5991C21.2564 65.4442 21.1035 65.4442 21.027 65.3668C20.8741 65.2893 20.7976 65.2893 20.6447 65.2893C20.4918 65.2893 20.3389 65.2893 20.2624 65.3668C20.1095 65.4442 20.033 65.5217 19.9566 65.5991C19.8801 65.6766 19.8036 65.8315 19.7272 65.9864C19.6507 66.1413 19.6507 66.2962 19.6507 66.4511C19.6507 66.606 19.6507 66.7609 19.7272 66.9158C19.8036 67.0707 19.8801 67.1481 19.9566 67.303C20.033 67.3804 20.1859 67.4579 20.2624 67.5353C20.3389 67.6128 20.4918 67.6128 20.6447 67.6128Z" fill="#737277"/>
<path d="M25.0795 68C24.9266 68 24.7736 68 24.6972 67.9226C24.5443 67.9226 24.4678 67.8451 24.3149 67.7677C24.2384 67.6902 24.162 67.6128 24.0855 67.4579C24.009 67.3805 24.009 67.2256 24.009 67.0707C24.009 66.9158 24.009 66.7609 24.0855 66.6834C24.162 66.5285 24.2384 66.4511 24.3149 66.3736C24.3913 66.2962 24.5443 66.2187 24.6972 66.2187C24.8501 66.1413 25.003 66.1413 25.2324 66.1413C25.3853 66.1413 25.6147 66.1413 25.6912 66.1413C25.8441 66.1413 25.997 66.2187 26.0735 66.2187V66.1413C26.0735 65.9089 25.997 65.6766 25.8441 65.5217C25.6912 65.3668 25.4618 65.2893 25.2324 65.2893C25.0795 65.2893 24.9266 65.2893 24.7736 65.3668C24.6207 65.3668 24.4678 65.4442 24.3913 65.5217L24.2384 65.1344C24.3913 65.057 24.5443 64.9795 24.6972 64.9795C24.8501 64.9021 25.0795 64.9021 25.3089 64.9021C25.6912 64.9021 26.0735 64.9795 26.2264 65.2119C26.4558 65.4442 26.5323 65.6766 26.5323 66.0638V67.9226H26.0735V67.4579C25.997 67.6128 25.8441 67.6902 25.6912 67.8451C25.6147 67.9226 25.3853 68 25.0795 68ZM25.2324 67.6128C25.3853 67.6128 25.4618 67.6128 25.6147 67.5353C25.7676 67.5353 25.8441 67.4579 25.9206 67.3805C25.997 67.303 26.0735 67.2256 26.15 67.1481C26.2264 67.0707 26.2264 66.9158 26.2264 66.8383V66.606C26.15 66.606 25.997 66.5285 25.8441 66.5285C25.6912 66.5285 25.5383 66.4511 25.3853 66.4511C25.0795 66.4511 24.9266 66.5285 24.7736 66.606C24.6207 66.6834 24.5443 66.8383 24.5443 67.0707C24.5443 67.1481 24.5443 67.2256 24.6207 67.303C24.6972 67.3805 24.6972 67.4579 24.7736 67.4579C24.8501 67.5354 24.9266 67.5353 25.003 67.5353C25.003 67.6128 25.0795 67.6128 25.2324 67.6128Z" fill="#737277"/>
<path d="M29.973 68C29.7436 68 29.5907 67.9226 29.3613 67.8451C29.2084 67.7677 29.0555 67.6128 28.9026 67.5353C28.7496 67.3805 28.6732 67.2256 28.5967 67.0707C28.5203 66.9158 28.5203 66.6834 28.5203 66.4511C28.5203 66.2187 28.5203 66.0638 28.5967 65.8315C28.6732 65.6766 28.7496 65.4442 28.9026 65.3668C29.0555 65.2119 29.2084 65.1344 29.3613 65.057C29.5143 64.9795 29.7436 64.9021 29.973 64.9021C30.126 64.9021 30.2789 64.9021 30.3553 64.9795C30.4318 64.9795 30.5847 65.057 30.6612 65.057C30.7376 65.057 30.8141 65.1344 30.8906 65.2119C30.967 65.2893 31.0435 65.3668 31.12 65.4442L30.8141 65.754C30.6612 65.5991 30.5847 65.5217 30.4318 65.4442C30.2789 65.3668 30.126 65.2893 29.8966 65.2893C29.7436 65.2893 29.5907 65.2893 29.5143 65.3668C29.3613 65.4442 29.2849 65.5217 29.2084 65.5991C29.132 65.754 29.0555 65.8315 29.0555 65.9864C28.979 66.1413 28.979 66.2962 28.979 66.4511C28.979 66.606 28.979 66.7609 29.0555 66.9158C29.132 67.0707 29.2084 67.1481 29.2849 67.303C29.3613 67.3805 29.5143 67.4579 29.5907 67.5353C29.7436 67.6128 29.8966 67.6128 30.0495 67.6128C30.2024 67.6128 30.4318 67.5354 30.5847 67.4579C30.7376 67.3805 30.8906 67.303 30.967 67.1481L31.2729 67.3805C31.12 67.5354 30.967 67.6902 30.7376 67.7677C30.5083 67.9226 30.2789 68 29.973 68Z" fill="#737277"/>
<path d="M33.1079 63.8179H33.6431V64.2826H33.1079V63.8179ZM33.1079 64.9796H33.5667V68.0001H33.1079V64.9796Z" fill="#737277"/>
<path d="M37.0839 68C36.8545 68 36.6251 67.9226 36.4722 67.8451C36.3193 67.7677 36.0899 67.6128 36.0134 67.5353C35.8605 67.3804 35.784 67.2255 35.7076 67.0706C35.6311 66.9157 35.6311 66.6834 35.6311 66.4511C35.6311 66.2187 35.6311 66.0638 35.7076 65.8315C35.784 65.6766 35.8605 65.4442 36.0134 65.3668C36.1663 65.2119 36.3193 65.1344 36.4722 65.057C36.6251 64.9795 36.8545 64.9021 37.0839 64.9021C37.3133 64.9021 37.5426 64.9795 37.6956 65.057C37.8485 65.1344 38.0779 65.2893 38.1543 65.3668C38.3073 65.5217 38.3837 65.6766 38.4602 65.8315C38.5366 65.9864 38.5367 66.2187 38.5367 66.4511C38.5367 66.6834 38.4602 66.8383 38.3837 67.0706C38.3073 67.2255 38.2308 67.4579 38.0779 67.5353C37.925 67.6902 37.772 67.7677 37.6191 67.8451C37.4662 68 37.2368 68 37.0839 68ZM37.0839 67.6128C37.2368 67.6128 37.3897 67.6128 37.5426 67.5353C37.6956 67.4579 37.772 67.3804 37.8485 67.303C37.925 67.2255 38.0014 67.0706 38.0779 66.9157C38.1543 66.7608 38.1543 66.606 38.1543 66.4511C38.1543 66.2962 38.1543 66.1413 38.0779 65.9864C38.0014 65.8315 37.925 65.754 37.8485 65.5991C37.772 65.5217 37.6191 65.4442 37.4662 65.3668C37.3133 65.2893 37.1603 65.2893 37.0074 65.2893C36.8545 65.2893 36.7016 65.2893 36.5486 65.3668C36.3957 65.4442 36.3193 65.5217 36.2428 65.5991C36.1663 65.6766 36.0899 65.8315 36.0134 65.9864C35.937 66.1413 35.937 66.2962 35.937 66.4511C35.937 66.606 35.937 66.7608 36.0134 66.9157C36.0899 67.0706 36.1663 67.1481 36.2428 67.303C36.3193 67.3804 36.4722 67.4579 36.6251 67.5353C36.778 67.6128 36.931 67.6128 37.0839 67.6128ZM37.3897 63.6629L37.8485 63.8953L37.2368 64.5148H36.8545L37.3897 63.6629Z" fill="#737277"/>
<path d="M40.5247 64.9796H40.9834V65.5217C41.0599 65.3668 41.2128 65.2119 41.3657 65.1344C41.5187 65.057 41.7481 64.9796 41.9774 64.9796C42.1304 64.9796 42.2833 64.9796 42.4362 65.057C42.5891 65.1344 42.6656 65.2119 42.8185 65.2893C42.895 65.3668 42.9714 65.5217 43.0479 65.6766C43.1244 65.8315 43.1244 65.9864 43.1244 66.1413V68.0001H42.6656V66.2962C42.6656 65.9864 42.5891 65.8315 42.4362 65.6766C42.2833 65.5217 42.1304 65.4442 41.8245 65.4442C41.6716 65.4442 41.5951 65.4442 41.4422 65.5217C41.3657 65.5991 41.2128 65.5991 41.1364 65.6766C41.0599 65.754 40.9834 65.8315 40.9834 65.9864C40.907 66.0638 40.907 66.2187 40.907 66.3736V68.0775H40.5247V64.9796Z" fill="#737277"/>
<path d="M47.9417 65.9089H48.4769V66.5285H47.9417V65.9089Z" fill="#737277"/>
<path d="M25.9205 56.9248C25.8441 57.3121 25.6911 57.6219 25.6147 58.0091C25.4617 58.3964 25.3853 58.7062 25.2324 59.0934C25.0794 59.4032 24.9265 59.713 24.7736 59.8679C24.6207 60.1002 24.3913 60.1777 24.2384 60.2551C23.7031 60.3326 23.2444 60.1777 22.9385 59.9453C22.5562 59.6355 22.3268 59.2483 22.0974 58.861C21.868 58.3964 21.7151 57.9317 21.6387 57.3895C21.5622 56.8474 21.4857 56.4601 21.4093 56.0729C21.3328 55.6082 21.3328 55.221 21.2563 54.8337C21.2563 54.5239 21.2563 54.2141 21.2563 53.9818C21.2563 53.7494 21.2563 53.5945 21.2563 53.4396C21.2563 53.2847 21.2563 53.2073 21.2563 53.0524C21.2563 52.8975 21.3328 52.7426 21.5622 52.7426C21.7916 52.6651 22.021 52.6651 22.2504 52.7426C22.4797 52.82 22.7856 52.8975 23.015 53.0524C23.2444 53.2073 23.3973 53.3622 23.3973 53.5945C23.3973 53.7494 23.3973 53.9043 23.4737 54.1367C23.4737 54.2916 23.4737 54.5239 23.4737 54.7563C23.4737 54.9886 23.4737 55.1435 23.5502 55.3759C23.5502 55.6082 23.5502 55.7631 23.6267 55.918C23.7796 57.0023 24.1619 57.7768 24.2384 57.9317C24.5442 58.5513 24.6207 58.7061 24.7736 59.0159C24.8501 58.9385 24.7736 59.0934 24.9265 58.861C25.003 58.6287 25.1559 58.3964 25.2324 58.164C25.3088 57.9317 25.4617 57.6219 25.5382 57.3895C25.6147 57.0797 25.6911 56.8474 25.7676 56.615C25.8441 56.3827 25.9205 56.1503 25.9205 55.918" fill="black"/>
<path d="M28.1381 40.9704C27.9852 41.2802 27.8322 41.6674 27.6793 42.0547C27.5264 42.4419 27.297 42.7517 27.1441 43.0615C26.9147 43.3713 26.7618 43.6037 26.5324 43.7586C26.303 43.9135 26.1501 44.0684 25.9207 44.0684C25.3855 44.0684 24.9267 43.9135 24.5444 43.5262C24.2385 43.2164 23.9327 42.7517 23.7798 42.287C23.6268 41.8223 23.4739 41.2802 23.4739 40.8155C23.3975 40.2734 23.3975 39.8861 23.3975 39.4989C23.3975 39.0342 23.3975 38.6469 23.3975 38.2597C23.3975 37.9499 23.4739 37.6401 23.4739 37.4078C23.4739 37.1754 23.5504 37.0205 23.5504 36.8656C23.5504 36.7107 23.5504 36.6333 23.5504 36.4784C23.5504 36.3235 23.7033 36.1686 23.8562 36.1686C24.0856 36.1686 24.315 36.1686 24.6208 36.246C24.9267 36.3235 25.1561 36.4784 25.3855 36.6333C25.6149 36.7882 25.6913 37.0205 25.6913 37.1754C25.6913 37.3303 25.6913 37.4852 25.6913 37.7176C25.6913 37.8725 25.6913 38.1048 25.6149 38.3371C25.6149 38.5695 25.6149 38.7244 25.5384 38.9567C25.5384 39.1891 25.5384 39.344 25.5384 39.4989C25.5384 40.3508 25.6149 41.1253 25.7678 41.6674C25.9207 42.2096 26.0736 42.6743 26.2265 42.9841C26.3795 42.9066 26.4559 42.8292 26.6089 42.5968C26.7618 42.4419 26.9147 42.2096 27.0676 41.9772C27.2205 41.7449 27.3735 41.5125 27.5264 41.2028C27.6793 40.893 27.8322 40.6606 27.9087 40.4283C28.0616 40.1959 28.1381 39.9636 28.2146 39.8087C28.291 39.6538 28.0616 39.5763 28.0616 39.4989" fill="black"/>
</g>
<defs>
<clipPath id="clip0">
<rect width="51" height="68" fill="white"/>
</clipPath>
</defs>
</svg>
