<svg width="802" height="330" viewBox="0 0 802 330" fill="none" xmlns="http://www.w3.org/2000/svg">
<g filter="url(#filter0_d)">
<g filter="url(#filter1_d)">
<circle cx="74.6136" cy="79.1443" r="70.6136" fill="white"/>
</g>
</g>
<g filter="url(#filter2_d)">
<g filter="url(#filter3_d)">
<circle cx="74.6136" cy="242.614" r="70.6136" fill="white"/>
</g>
</g>
<g filter="url(#filter4_d)">
<g filter="url(#filter5_d)">
<circle cx="714.614" cy="249.614" r="70.6136" fill="white"/>
</g>
</g>
<g filter="url(#filter6_d)">
<g filter="url(#filter7_d)">
<circle cx="230.614" cy="77.6136" r="70.6136" fill="white"/>
</g>
</g>
<g filter="url(#filter8_d)">
<g filter="url(#filter9_d)">
<circle cx="394.614" cy="77.6136" r="70.6136" fill="white"/>
</g>
</g>
<g filter="url(#filter10_d)">
<g filter="url(#filter11_d)">
<circle cx="556.614" cy="77.6136" r="70.6136" fill="white"/>
</g>
</g>
<g filter="url(#filter12_d)">
<g filter="url(#filter13_d)">
<circle cx="394.614" cy="237.614" r="70.6136" fill="white"/>
</g>
</g>
<g filter="url(#filter14_d)">
<g filter="url(#filter15_d)">
<circle cx="556.614" cy="237.614" r="70.6136" fill="white"/>
</g>
</g>
<g filter="url(#filter16_d)">
<g filter="url(#filter17_d)">
<circle cx="234.614" cy="242.614" r="70.6136" fill="white"/>
</g>
</g>
<g filter="url(#filter18_d)">
<g filter="url(#filter19_d)">
<circle cx="718.614" cy="77.6136" r="70.6136" fill="white"/>
</g>
</g>
<path d="M196.182 235.975C197.186 234.795 197.623 234.249 197.536 233.943C197.471 233.725 197.23 233.528 196.881 233.397C196.509 233.244 195.985 233.178 195.723 233.331C195.635 233.375 195.504 233.55 195.155 233.921L194.827 234.271C194.63 234.074 194.412 233.856 194.193 233.681C192.664 232.348 190.763 231.474 188.731 231.147C187.923 230.273 186.853 229.879 185.804 230.032C184.93 230.163 184.144 230.688 183.619 231.518C181.565 232.152 179.687 233.331 178.201 234.948C177.873 234.839 177.152 234.97 176.693 235.232C176.431 235.385 176.278 235.538 176.257 235.735C176.235 235.866 176.278 236.106 176.846 236.739C175.383 239.055 174.771 241.786 175.077 244.452C175.404 247.183 176.693 249.651 178.725 251.421C179.446 252.055 180.233 252.579 181.085 252.994C182.308 253.584 183.663 253.999 185.105 254.196C188.163 254.611 191.113 253.955 193.516 252.557C193.822 252.382 193.931 252.011 193.778 251.661L193.735 251.552C193.101 250.154 191.2 245.894 192.271 242.005C192.708 240.388 193.997 238.64 195.089 237.286C196.269 239.121 196.859 241.284 196.771 243.403C196.684 245.413 196.029 247.292 194.849 248.887C194.805 248.93 194.783 248.996 194.805 249.04C194.805 249.062 194.805 249.083 194.827 249.105L194.958 249.389C195.002 249.477 195.089 249.52 195.177 249.52C195.242 249.52 195.308 249.477 195.329 249.433C198.432 245.5 198.803 240.06 196.182 235.975ZM182.396 245.173C182.155 246.636 181.806 248.625 182.112 251.661C181.303 251.246 180.539 250.744 179.861 250.154C178.004 248.515 176.737 246.309 176.322 243.905C175.907 241.612 176.3 239.274 177.393 237.308C177.808 237.744 178.31 238.247 178.856 238.771C180.145 240.06 181.631 241.502 182.33 242.551C182.745 243.141 182.614 243.905 182.396 245.173ZM193.669 235.516C191.288 237.919 189.037 239.208 186.984 239.383C185.411 239.492 183.728 239.033 182.024 237.985C180.604 237.111 179.512 236.084 178.856 235.472L178.791 235.407C179.971 234.161 181.456 233.222 183.095 232.741C182.92 233.397 182.876 234.074 182.986 234.773C183.182 236.019 183.816 237.111 184.733 237.788C185.454 238.313 186.306 238.531 187.115 238.4C187.923 238.269 188.666 237.81 189.19 237.089C189.868 236.171 190.13 234.926 189.933 233.681C189.889 233.462 189.846 233.222 189.78 233.004C190.982 233.462 192.074 234.118 193.057 234.97C193.276 235.145 193.472 235.341 193.669 235.516Z" fill="#E42313"/>
<path d="M233.803 241.917H231.837V244.124C231.837 244.648 232.142 244.998 232.667 244.998C233.016 244.998 233.344 244.911 233.803 244.692V245.916C233.213 246.156 232.754 246.265 232.23 246.265C231.116 246.265 230.132 245.741 230.132 244.255V241.917H229.368V241.59L231.618 239.077H231.837V240.76H233.803V241.917ZM256.939 243.709C255.803 244.255 255.104 244.583 254.056 244.583C252.395 244.583 251.215 243.578 251.215 242.136C251.215 240.716 252.417 239.711 254.099 239.711C255.082 239.711 255.956 240.039 256.852 240.519V238.75C256.066 238.291 255.082 238.05 253.968 238.05C250.931 238.05 249.184 240.039 249.184 242.158C249.184 244.211 250.735 246.221 253.815 246.221C254.995 246.221 255.825 246.003 256.939 245.435V243.709V243.709ZM215.648 245.435L214.446 246.243C213.922 246.134 213.572 245.85 213.397 245.588C213.091 245.872 212.654 246.243 211.802 246.243C209.989 246.243 209.246 244.627 209.246 243.447C209.246 242.158 210.033 240.65 211.846 240.65C212.567 240.65 213.004 240.869 213.266 241.022V240.76H214.948V244.277C214.927 244.758 215.036 245.304 215.648 245.435ZM213.244 242.092C213.048 241.983 212.72 241.786 212.261 241.786C211.3 241.786 210.972 242.813 210.972 243.578C210.972 244.299 211.344 245.042 212.283 245.042C212.786 245.042 213.048 244.823 213.222 244.67V242.092H213.244ZM227.03 243.731H223.163C223.229 244.692 223.884 245.238 224.933 245.238C225.61 245.238 226.134 245.042 226.921 244.474V245.544C225.96 246.265 224.933 246.265 224.518 246.265C222.639 246.265 221.393 245.173 221.393 243.49C221.393 241.852 222.573 240.672 224.234 240.672C225.829 240.65 227.118 241.764 227.03 243.731ZM225.61 242.835C225.545 242.092 225.086 241.655 224.452 241.655C223.775 241.655 223.36 242.092 223.294 242.835H225.61ZM246.649 243.731H242.782C242.848 244.692 243.503 245.238 244.552 245.238C245.229 245.238 245.754 245.042 246.54 244.474V245.544C245.579 246.265 244.552 246.265 244.137 246.265C242.236 246.265 241.013 245.173 241.013 243.49C241.013 241.852 242.192 240.672 243.853 240.672C245.426 240.65 246.715 241.764 246.649 243.731ZM245.142 242.835C245.076 242.092 244.617 241.655 243.962 241.655C243.307 241.655 242.87 242.092 242.804 242.835H245.142ZM236.403 238.182H234.72V246.134H236.403V242.966C236.403 242.464 236.752 241.896 237.539 241.896C238.063 241.896 238.413 242.267 238.413 243.075V246.134H240.117V242.704C240.117 241.24 239.134 240.65 238.151 240.65C237.495 240.65 236.905 240.934 236.425 241.546V238.182H236.403ZM259.933 238.182H258.25V246.134H259.933V242.966C259.933 242.464 260.282 241.896 261.069 241.896C261.593 241.896 261.943 242.267 261.943 243.075V246.134H263.647V242.704C263.647 241.24 262.664 240.65 261.68 240.65C261.025 240.65 260.435 240.934 259.954 241.546V238.182H259.933ZM208.088 238.706C207.083 238.269 206.275 238.094 205.401 238.094C203.566 238.094 202.364 239.012 202.364 240.388C202.364 243.25 206.406 242.769 206.406 244.08C206.406 244.539 205.991 244.823 205.248 244.823C204.374 244.823 203.675 244.561 202.539 243.796V245.522C203.326 245.937 204.025 246.287 205.401 246.287C207.171 246.287 208.46 245.391 208.46 243.862C208.46 241.087 204.418 241.415 204.418 240.213C204.418 239.82 204.877 239.558 205.576 239.558C206.253 239.558 206.93 239.755 208.088 240.279V238.706V238.706ZM265.569 238.072C265.067 238.072 264.63 238.487 264.63 239.012C264.63 239.536 265.045 239.951 265.569 239.951C266.094 239.951 266.509 239.536 266.509 239.012C266.509 238.487 266.094 238.072 265.569 238.072ZM266.421 240.76H264.739V246.134H266.421V240.76ZM269.414 238.182H267.732V244.015C267.732 245.085 268.016 246.178 269.786 246.243L270.332 245.02C269.611 244.889 269.436 244.561 269.436 243.731V238.182H269.414ZM279.421 240.76H277.738V246.134H279.421V243.774C279.421 242.769 279.945 242.245 280.819 242.245C281.081 242.245 281.387 242.354 281.824 242.638L282.283 241.153C281.802 240.781 281.496 240.672 281.168 240.672C280.622 240.672 279.836 240.978 279.421 242.027V240.76ZM288.094 243.731H284.227C284.293 244.692 284.948 245.238 285.997 245.238C286.674 245.238 287.198 245.042 287.985 244.474V245.544C287.024 246.265 285.997 246.265 285.582 246.265C283.703 246.265 282.457 245.173 282.457 243.49C282.457 241.852 283.637 240.672 285.298 240.672C286.871 240.65 288.16 241.764 288.094 243.731ZM286.587 242.835C286.521 242.092 286.084 241.655 285.429 241.655C284.773 241.655 284.336 242.092 284.271 242.835H286.587ZM292.551 240.672C291.896 240.672 291.306 240.956 290.825 241.568V240.76H289.143V246.134H290.825V242.944C290.825 242.485 291.175 241.896 291.961 241.896C292.485 241.896 292.835 242.267 292.835 243.075V246.134H294.539V242.726C294.539 241.262 293.534 240.672 292.551 240.672ZM276.493 238.182H274.789V241C274.33 240.781 273.871 240.672 273.391 240.672C271.861 240.672 270.769 241.808 270.769 243.469C270.769 245.085 271.839 246.265 273.281 246.265C273.849 246.265 274.286 246.112 274.767 245.719V246.156H276.449V238.182H276.493ZM274.789 244.67C274.439 244.976 274.155 245.107 273.784 245.107C272.997 245.107 272.495 244.452 272.495 243.469C272.495 242.398 272.997 241.764 273.849 241.764C274.155 241.764 274.549 241.896 274.789 242.07V244.67ZM221.35 240.76H219.558L218.4 243.731L217.264 240.76H215.604L217.898 246.134H218.925L221.35 240.76Z" fill="black"/>
<path d="M365.676 64.2926H362.394V67.7462H361.363V59.9259H366.207V60.7745H362.394V63.4493H365.676V64.2926ZM370.757 67.1715C370.37 67.6263 369.803 67.8536 369.054 67.8536C368.435 67.8536 367.962 67.6746 367.636 67.3165C367.314 66.9549 367.151 66.4213 367.147 65.7159V61.9347H368.141V65.6891C368.141 66.5699 368.499 67.0104 369.215 67.0104C369.974 67.0104 370.479 66.7275 370.73 66.1617V61.9347H371.724V67.7462H370.778L370.757 67.1715ZM374.178 61.9347L374.21 62.6652C374.654 62.1066 375.234 61.8273 375.951 61.8273C377.179 61.8273 377.798 62.5201 377.809 63.9059V67.7462H376.815V63.9005C376.812 63.4816 376.715 63.1718 376.525 62.9713C376.339 62.7708 376.047 62.6705 375.65 62.6705C375.328 62.6705 375.045 62.7565 374.801 62.9283C374.558 63.1002 374.368 63.3258 374.232 63.6051V67.7462H373.238V61.9347H374.178ZM379.066 64.7921C379.066 63.9005 379.277 63.1844 379.7 62.6437C380.122 62.0994 380.675 61.8273 381.359 61.8273C382.04 61.8273 382.579 62.06 382.976 62.5255V59.4962H383.97V67.7462H383.057L383.008 67.1232C382.611 67.6101 382.058 67.8536 381.349 67.8536C380.675 67.8536 380.126 67.5779 379.7 67.0265C379.277 66.4751 379.066 65.7553 379.066 64.8673V64.7921ZM380.06 64.9049C380.06 65.5638 380.196 66.0794 380.468 66.4518C380.74 66.8242 381.116 67.0104 381.596 67.0104C382.226 67.0104 382.686 66.7275 382.976 66.1617V63.4923C382.679 62.9445 382.222 62.6705 381.606 62.6705C381.119 62.6705 380.74 62.8585 380.468 63.2345C380.196 63.6105 380.06 64.1673 380.06 64.9049ZM389.104 67.7462C389.047 67.6316 389.001 67.4275 388.965 67.1339C388.503 67.6137 387.951 67.8536 387.31 67.8536C386.738 67.8536 386.267 67.6925 385.898 67.3702C385.533 67.0444 385.35 66.6326 385.35 66.1349C385.35 65.5297 385.579 65.0607 386.038 64.7277C386.499 64.3911 387.148 64.2228 387.982 64.2228H388.949V63.7662C388.949 63.4189 388.845 63.1432 388.637 62.9391C388.429 62.7314 388.123 62.6276 387.719 62.6276C387.364 62.6276 387.067 62.7171 386.827 62.8961C386.587 63.0752 386.467 63.2918 386.467 63.546H385.468C385.468 63.256 385.57 62.9767 385.774 62.7081C385.982 62.436 386.261 62.2212 386.612 62.0636C386.967 61.906 387.355 61.8273 387.778 61.8273C388.447 61.8273 388.972 61.9956 389.352 62.3322C389.731 62.6652 389.928 63.1253 389.942 63.7125V66.3873C389.942 66.9209 390.01 67.3452 390.146 67.6603V67.7462H389.104ZM387.456 66.9889C387.767 66.9889 388.062 66.9083 388.342 66.7472C388.621 66.5861 388.823 66.3766 388.949 66.1188V64.9264H388.17C386.952 64.9264 386.344 65.2827 386.344 65.9952C386.344 66.3068 386.448 66.5503 386.655 66.7257C386.863 66.9012 387.13 66.9889 387.456 66.9889ZM393.831 67.0426C394.185 67.0426 394.495 66.9352 394.76 66.7203C395.025 66.5055 395.172 66.2369 395.201 65.9147H396.141C396.123 66.2477 396.008 66.5646 395.797 66.8654C395.586 67.1661 395.303 67.406 394.948 67.5851C394.597 67.7641 394.225 67.8536 393.831 67.8536C393.04 67.8536 392.409 67.5905 391.94 67.0641C391.475 66.5341 391.242 65.8108 391.242 64.8942V64.7277C391.242 64.1619 391.346 63.6588 391.554 63.2184C391.761 62.778 392.059 62.436 392.445 62.1925C392.836 61.949 393.296 61.8273 393.826 61.8273C394.477 61.8273 395.018 62.0224 395.448 62.4127C395.881 62.803 396.112 63.3097 396.141 63.9327H395.201C395.172 63.5568 395.029 63.2488 394.771 63.0089C394.517 62.7654 394.202 62.6437 393.826 62.6437C393.321 62.6437 392.929 62.8263 392.649 63.1915C392.374 63.5532 392.236 64.0778 392.236 64.7653V64.9532C392.236 65.6228 392.374 66.1385 392.649 66.5001C392.925 66.8618 393.319 67.0426 393.831 67.0426ZM398.337 67.7462H397.344V61.9347H398.337V67.7462ZM397.263 60.3932C397.263 60.2321 397.311 60.096 397.408 59.985C397.508 59.874 397.655 59.8185 397.849 59.8185C398.042 59.8185 398.189 59.874 398.289 59.985C398.389 60.096 398.439 60.2321 398.439 60.3932C398.439 60.5543 398.389 60.6886 398.289 60.796C398.189 60.9034 398.042 60.9572 397.849 60.9572C397.655 60.9572 397.508 60.9034 397.408 60.796C397.311 60.6886 397.263 60.5543 397.263 60.3932ZM399.669 64.7867C399.669 64.2174 399.78 63.7054 400.002 63.2506C400.228 62.7959 400.539 62.4449 400.937 62.1979C401.338 61.9508 401.795 61.8273 402.307 61.8273C403.098 61.8273 403.737 62.1012 404.224 62.649C404.715 63.1969 404.96 63.9256 404.96 64.8351V64.9049C404.96 65.4707 404.851 65.9791 404.632 66.4303C404.417 66.8779 404.108 67.227 403.703 67.4777C403.302 67.7283 402.84 67.8536 402.317 67.8536C401.53 67.8536 400.89 67.5797 400.4 67.0319C399.913 66.484 399.669 65.7589 399.669 64.8566V64.7867ZM400.668 64.9049C400.668 65.5494 400.817 66.0669 401.114 66.4572C401.415 66.8475 401.816 67.0426 402.317 67.0426C402.822 67.0426 403.223 66.8457 403.52 66.4518C403.818 66.0543 403.966 65.4993 403.966 64.7867C403.966 64.1494 403.814 63.6337 403.51 63.2399C403.209 62.8424 402.808 62.6437 402.307 62.6437C401.816 62.6437 401.42 62.8388 401.12 63.2291C400.819 63.6194 400.668 64.178 400.668 64.9049ZM402.758 59.4962H403.961L402.521 61.0753H401.721L402.758 59.4962ZM407.146 61.9347L407.178 62.6652C407.622 62.1066 408.202 61.8273 408.918 61.8273C410.147 61.8273 410.766 62.5201 410.777 63.9059V67.7462H409.783V63.9005C409.78 63.4816 409.683 63.1718 409.493 62.9713C409.307 62.7708 409.015 62.6705 408.618 62.6705C408.295 62.6705 408.012 62.7565 407.769 62.9283C407.525 63.1002 407.336 63.3258 407.2 63.6051V67.7462H406.206V61.9347H407.146ZM419.478 65.7052H416.202L415.466 67.7462H414.402L417.389 59.9259H418.291L421.283 67.7462H420.225L419.478 65.7052ZM416.513 64.8566H419.172L417.84 61.1989L416.513 64.8566Z" fill="white"/>
<circle cx="711.901" cy="75.6136" r="70.6136" fill="white"/>
<path d="M66.3059 239.062H63.0241V242.515H61.9929V234.695H66.8376V235.543H63.0241V238.218H66.3059V239.062ZM71.3869 241.94C71.0002 242.395 70.4326 242.623 69.6843 242.623C69.0648 242.623 68.5922 242.444 68.2663 242.085C67.944 241.724 67.7811 241.19 67.7775 240.485V236.704H68.7712V240.458C68.7712 241.339 69.1293 241.779 69.8454 241.779C70.6045 241.779 71.1094 241.496 71.3601 240.931V236.704H72.3537V242.515H71.4084L71.3869 241.94ZM74.8083 236.704L74.8405 237.434C75.2845 236.875 75.8646 236.596 76.5808 236.596C77.8089 236.596 78.4284 237.289 78.4392 238.675V242.515H77.4455V238.669C77.4419 238.25 77.3452 237.941 77.1555 237.74C76.9693 237.54 76.6774 237.439 76.28 237.439C75.9577 237.439 75.6748 237.525 75.4313 237.697C75.1879 237.869 74.9981 238.095 74.862 238.374V242.515H73.8684V236.704H74.8083ZM79.696 239.561C79.696 238.669 79.9073 237.953 80.3298 237.413C80.7523 236.868 81.3055 236.596 81.9894 236.596C82.6698 236.596 83.2087 236.829 83.6061 237.294V234.265H84.5998V242.515H83.6867L83.6384 241.892C83.2409 242.379 82.6877 242.623 81.9787 242.623C81.3055 242.623 80.7559 242.347 80.3298 241.795C79.9073 241.244 79.696 240.524 79.696 239.636V239.561ZM80.6896 239.674C80.6896 240.333 80.8257 240.848 81.0978 241.221C81.37 241.593 81.746 241.779 82.2258 241.779C82.856 241.779 83.3161 241.496 83.6061 240.931V238.261C83.3089 237.713 82.8524 237.439 82.2365 237.439C81.7495 237.439 81.37 237.627 81.0978 238.003C80.8257 238.379 80.6896 238.936 80.6896 239.674ZM89.7346 242.515C89.6773 242.401 89.6307 242.196 89.5949 241.903C89.133 242.383 88.5816 242.623 87.9406 242.623C87.3677 242.623 86.8968 242.461 86.528 242.139C86.1628 241.813 85.9802 241.402 85.9802 240.904C85.9802 240.299 86.2093 239.83 86.6677 239.497C87.1296 239.16 87.7777 238.992 88.612 238.992H89.5788V238.535C89.5788 238.188 89.475 237.912 89.2673 237.708C89.0596 237.5 88.7534 237.396 88.3488 237.396C87.9943 237.396 87.6971 237.486 87.4572 237.665C87.2173 237.844 87.0974 238.061 87.0974 238.315H86.0983C86.0983 238.025 86.2004 237.746 86.4045 237.477C86.6122 237.205 86.8915 236.99 87.2424 236.833C87.5969 236.675 87.9854 236.596 88.4079 236.596C89.0775 236.596 89.6021 236.764 89.9816 237.101C90.3612 237.434 90.5581 237.894 90.5725 238.481V241.156C90.5725 241.69 90.6405 242.114 90.7766 242.429V242.515H89.7346ZM88.0856 241.758C88.3972 241.758 88.6926 241.677 88.9719 241.516C89.2512 241.355 89.4535 241.146 89.5788 240.888V239.695H88.8C87.5825 239.695 86.9738 240.052 86.9738 240.764C86.9738 241.076 87.0777 241.319 87.2853 241.495C87.493 241.67 87.7598 241.758 88.0856 241.758ZM94.4611 241.812C94.8156 241.812 95.1254 241.704 95.3903 241.489C95.6553 241.274 95.8021 241.006 95.8308 240.684H96.7707C96.7528 241.017 96.6382 241.333 96.4269 241.634C96.2157 241.935 95.9328 242.175 95.5783 242.354C95.2274 242.533 94.855 242.623 94.4611 242.623C93.6698 242.623 93.0396 242.359 92.5705 241.833C92.105 241.303 91.8723 240.58 91.8723 239.663V239.497C91.8723 238.931 91.9761 238.428 92.1838 237.987C92.3915 237.547 92.6887 237.205 93.0754 236.961C93.4657 236.718 93.9258 236.596 94.4558 236.596C95.1074 236.596 95.6481 236.791 96.0778 237.182C96.5111 237.572 96.7421 238.079 96.7707 238.702H95.8308C95.8021 238.326 95.6589 238.018 95.4011 237.778C95.1468 237.534 94.8317 237.413 94.4558 237.413C93.9509 237.413 93.5588 237.595 93.2795 237.96C93.0038 238.322 92.8659 238.847 92.8659 239.534V239.722C92.8659 240.392 93.0038 240.907 93.2795 241.269C93.5552 241.631 93.9491 241.812 94.4611 241.812ZM98.9675 242.515H97.9738V236.704H98.9675V242.515ZM97.8933 235.162C97.8933 235.001 97.9416 234.865 98.0383 234.754C98.1385 234.643 98.2853 234.587 98.4787 234.587C98.6721 234.587 98.8189 234.643 98.9191 234.754C99.0194 234.865 99.0695 235.001 99.0695 235.162C99.0695 235.323 99.0194 235.458 98.9191 235.565C98.8189 235.672 98.6721 235.726 98.4787 235.726C98.2853 235.726 98.1385 235.672 98.0383 235.565C97.9416 235.458 97.8933 235.323 97.8933 235.162ZM100.3 239.556C100.3 238.986 100.411 238.474 100.633 238.02C100.858 237.565 101.17 237.214 101.567 236.967C101.968 236.72 102.425 236.596 102.937 236.596C103.728 236.596 104.367 236.87 104.854 237.418C105.345 237.966 105.59 238.694 105.59 239.604V239.674C105.59 240.24 105.481 240.748 105.262 241.199C105.048 241.647 104.738 241.996 104.333 242.247C103.932 242.497 103.47 242.623 102.947 242.623C102.16 242.623 101.521 242.349 101.03 241.801C100.543 241.253 100.3 240.528 100.3 239.625V239.556ZM101.299 239.674C101.299 240.318 101.447 240.836 101.744 241.226C102.045 241.616 102.446 241.812 102.947 241.812C103.452 241.812 103.853 241.615 104.151 241.221C104.448 240.823 104.596 240.268 104.596 239.556C104.596 238.918 104.444 238.403 104.14 238.009C103.839 237.611 103.438 237.413 102.937 237.413C102.446 237.413 102.05 237.608 101.75 237.998C101.449 238.388 101.299 238.947 101.299 239.674ZM103.388 234.265H104.591L103.152 235.844H102.351L103.388 234.265ZM107.776 236.704L107.808 237.434C108.252 236.875 108.832 236.596 109.549 236.596C110.777 236.596 111.396 237.289 111.407 238.675V242.515H110.413V238.669C110.41 238.25 110.313 237.941 110.123 237.74C109.937 237.54 109.645 237.439 109.248 237.439C108.925 237.439 108.643 237.525 108.399 237.697C108.156 237.869 107.966 238.095 107.83 238.374V242.515H106.836V236.704H107.776ZM120.108 240.474H116.832L116.096 242.515H115.032L118.019 234.695H118.921L121.913 242.515H120.855L120.108 240.474ZM117.143 239.625H119.802L118.47 235.968L117.143 239.625Z" fill="white"/>
<path d="M708.89 235.531H705.608V238.984H704.577V231.164H709.421V232.012H705.608V234.687H708.89V235.531ZM713.971 238.409C713.584 238.864 713.016 239.092 712.268 239.092C711.649 239.092 711.176 238.913 710.85 238.554C710.528 238.193 710.365 237.659 710.361 236.954V233.173H711.355V236.927C711.355 237.808 711.713 238.248 712.429 238.248C713.188 238.248 713.693 237.965 713.944 237.4V233.173H714.937V238.984H713.992L713.971 238.409ZM717.392 233.173L717.424 233.903C717.868 233.344 718.448 233.065 719.164 233.065C720.393 233.065 721.012 233.758 721.023 235.144V238.984H720.029V235.138C720.026 234.719 719.929 234.41 719.739 234.209C719.553 234.009 719.261 233.908 718.864 233.908C718.541 233.908 718.259 233.994 718.015 234.166C717.772 234.338 717.582 234.564 717.446 234.843V238.984H716.452V233.173H717.392ZM722.28 236.03C722.28 235.138 722.491 234.422 722.914 233.882C723.336 233.337 723.889 233.065 724.573 233.065C725.254 233.065 725.792 233.298 726.19 233.763V230.734H727.184V238.984H726.27L726.222 238.361C725.825 238.848 725.271 239.092 724.562 239.092C723.889 239.092 723.34 238.816 722.914 238.264C722.491 237.713 722.28 236.993 722.28 236.105V236.03ZM723.273 236.143C723.273 236.802 723.409 237.317 723.682 237.69C723.954 238.062 724.33 238.248 724.81 238.248C725.44 238.248 725.9 237.965 726.19 237.4V234.73C725.893 234.182 725.436 233.908 724.82 233.908C724.333 233.908 723.954 234.096 723.682 234.472C723.409 234.848 723.273 235.405 723.273 236.143ZM732.318 238.984C732.261 238.87 732.214 238.665 732.179 238.372C731.717 238.852 731.165 239.092 730.524 239.092C729.951 239.092 729.481 238.93 729.112 238.608C728.747 238.282 728.564 237.871 728.564 237.373C728.564 236.768 728.793 236.299 729.251 235.966C729.713 235.629 730.361 235.461 731.196 235.461H732.163V235.004C732.163 234.657 732.059 234.381 731.851 234.177C731.643 233.969 731.337 233.865 730.933 233.865C730.578 233.865 730.281 233.955 730.041 234.134C729.801 234.313 729.681 234.53 729.681 234.784H728.682C728.682 234.494 728.784 234.215 728.988 233.946C729.196 233.674 729.475 233.459 729.826 233.302C730.181 233.144 730.569 233.065 730.992 233.065C731.661 233.065 732.186 233.233 732.565 233.57C732.945 233.903 733.142 234.363 733.156 234.95V237.625C733.156 238.159 733.224 238.583 733.36 238.898V238.984H732.318ZM730.669 238.227C730.981 238.227 731.276 238.146 731.556 237.985C731.835 237.824 732.037 237.615 732.163 237.357V236.164H731.384C730.166 236.164 729.558 236.521 729.558 237.233C729.558 237.545 729.661 237.788 729.869 237.964C730.077 238.139 730.344 238.227 730.669 238.227ZM737.045 238.281C737.399 238.281 737.709 238.173 737.974 237.958C738.239 237.743 738.386 237.475 738.414 237.153H739.354C739.337 237.486 739.222 237.802 739.011 238.103C738.799 238.404 738.517 238.644 738.162 238.823C737.811 239.002 737.439 239.092 737.045 239.092C736.254 239.092 735.623 238.828 735.154 238.302C734.689 237.772 734.456 237.049 734.456 236.132V235.966C734.456 235.4 734.56 234.897 734.768 234.456C734.975 234.016 735.272 233.674 735.659 233.43C736.049 233.187 736.51 233.065 737.039 233.065C737.691 233.065 738.232 233.26 738.662 233.651C739.095 234.041 739.326 234.548 739.354 235.171H738.414C738.386 234.795 738.243 234.487 737.985 234.247C737.731 234.003 737.415 233.882 737.039 233.882C736.535 233.882 736.143 234.064 735.863 234.429C735.588 234.791 735.45 235.316 735.45 236.003V236.191C735.45 236.861 735.588 237.376 735.863 237.738C736.139 238.1 736.533 238.281 737.045 238.281ZM741.551 238.984H740.558V233.173H741.551V238.984ZM740.477 231.631C740.477 231.47 740.525 231.334 740.622 231.223C740.722 231.112 740.869 231.056 741.062 231.056C741.256 231.056 741.403 231.112 741.503 231.223C741.603 231.334 741.653 231.47 741.653 231.631C741.653 231.792 741.603 231.927 741.503 232.034C741.403 232.141 741.256 232.195 741.062 232.195C740.869 232.195 740.722 232.141 740.622 232.034C740.525 231.927 740.477 231.792 740.477 231.631ZM742.883 236.025C742.883 235.455 742.994 234.943 743.216 234.489C743.442 234.034 743.753 233.683 744.151 233.436C744.552 233.189 745.008 233.065 745.52 233.065C746.312 233.065 746.951 233.339 747.438 233.887C747.928 234.435 748.174 235.163 748.174 236.073V236.143C748.174 236.709 748.065 237.217 747.846 237.668C747.631 238.116 747.322 238.465 746.917 238.716C746.516 238.966 746.054 239.092 745.531 239.092C744.743 239.092 744.104 238.818 743.614 238.27C743.127 237.722 742.883 236.997 742.883 236.094V236.025ZM743.882 236.143C743.882 236.787 744.031 237.305 744.328 237.695C744.629 238.085 745.03 238.281 745.531 238.281C746.036 238.281 746.437 238.084 746.734 237.69C747.032 237.292 747.18 236.737 747.18 236.025C747.18 235.387 747.028 234.872 746.724 234.478C746.423 234.08 746.022 233.882 745.52 233.882C745.03 233.882 744.634 234.077 744.333 234.467C744.033 234.857 743.882 235.416 743.882 236.143ZM745.972 230.734H747.175L745.735 232.313H744.935L745.972 230.734ZM750.36 233.173L750.392 233.903C750.836 233.344 751.416 233.065 752.132 233.065C753.36 233.065 753.98 233.758 753.991 235.144V238.984H752.997V235.138C752.993 234.719 752.897 234.41 752.707 234.209C752.521 234.009 752.229 233.908 751.831 233.908C751.509 233.908 751.226 233.994 750.983 234.166C750.739 234.338 750.55 234.564 750.414 234.843V238.984H749.42V233.173H750.36ZM762.692 236.943H759.415L758.68 238.984H757.616L760.602 231.164H761.505L764.497 238.984H763.438L762.692 236.943ZM759.727 236.094H762.386L761.054 232.437L759.727 236.094Z" fill="white"/>
<defs>
<filter id="filter0_d" x="0" y="1.5307" width="157.227" height="157.227" filterUnits="userSpaceOnUse" color-interpolation-filters="sRGB">
<feFlood flood-opacity="0" result="BackgroundImageFix"/>
<feColorMatrix in="SourceAlpha" type="matrix" values="0 0 0 0 0 0 0 0 0 0 0 0 0 0 0 0 0 0 127 0"/>
<feOffset dx="4" dy="1"/>
<feGaussianBlur stdDeviation="4"/>
<feColorMatrix type="matrix" values="0 0 0 0 0 0 0 0 0 0 0 0 0 0 0 0 0 0 0.15 0"/>
<feBlend mode="normal" in2="BackgroundImageFix" result="effect1_dropShadow"/>
<feBlend mode="normal" in="SourceGraphic" in2="effect1_dropShadow" result="shape"/>
</filter>
<filter id="filter1_d" x="0" y="8.5307" width="149.227" height="149.227" filterUnits="userSpaceOnUse" color-interpolation-filters="sRGB">
<feFlood flood-opacity="0" result="BackgroundImageFix"/>
<feColorMatrix in="SourceAlpha" type="matrix" values="0 0 0 0 0 0 0 0 0 0 0 0 0 0 0 0 0 0 127 0"/>
<feOffset dy="4"/>
<feGaussianBlur stdDeviation="2"/>
<feColorMatrix type="matrix" values="0 0 0 0 0 0 0 0 0 0 0 0 0 0 0 0 0 0 0.25 0"/>
<feBlend mode="normal" in2="BackgroundImageFix" result="effect1_dropShadow"/>
<feBlend mode="normal" in="SourceGraphic" in2="effect1_dropShadow" result="shape"/>
</filter>
<filter id="filter2_d" x="0" y="165" width="157.227" height="157.227" filterUnits="userSpaceOnUse" color-interpolation-filters="sRGB">
<feFlood flood-opacity="0" result="BackgroundImageFix"/>
<feColorMatrix in="SourceAlpha" type="matrix" values="0 0 0 0 0 0 0 0 0 0 0 0 0 0 0 0 0 0 127 0"/>
<feOffset dx="4" dy="1"/>
<feGaussianBlur stdDeviation="4"/>
<feColorMatrix type="matrix" values="0 0 0 0 0 0 0 0 0 0 0 0 0 0 0 0 0 0 0.15 0"/>
<feBlend mode="normal" in2="BackgroundImageFix" result="effect1_dropShadow"/>
<feBlend mode="normal" in="SourceGraphic" in2="effect1_dropShadow" result="shape"/>
</filter>
<filter id="filter3_d" x="0" y="172" width="149.227" height="149.227" filterUnits="userSpaceOnUse" color-interpolation-filters="sRGB">
<feFlood flood-opacity="0" result="BackgroundImageFix"/>
<feColorMatrix in="SourceAlpha" type="matrix" values="0 0 0 0 0 0 0 0 0 0 0 0 0 0 0 0 0 0 127 0"/>
<feOffset dy="4"/>
<feGaussianBlur stdDeviation="2"/>
<feColorMatrix type="matrix" values="0 0 0 0 0 0 0 0 0 0 0 0 0 0 0 0 0 0 0.25 0"/>
<feBlend mode="normal" in2="BackgroundImageFix" result="effect1_dropShadow"/>
<feBlend mode="normal" in="SourceGraphic" in2="effect1_dropShadow" result="shape"/>
</filter>
<filter id="filter4_d" x="640" y="172" width="157.227" height="157.227" filterUnits="userSpaceOnUse" color-interpolation-filters="sRGB">
<feFlood flood-opacity="0" result="BackgroundImageFix"/>
<feColorMatrix in="SourceAlpha" type="matrix" values="0 0 0 0 0 0 0 0 0 0 0 0 0 0 0 0 0 0 127 0"/>
<feOffset dx="4" dy="1"/>
<feGaussianBlur stdDeviation="4"/>
<feColorMatrix type="matrix" values="0 0 0 0 0 0 0 0 0 0 0 0 0 0 0 0 0 0 0.15 0"/>
<feBlend mode="normal" in2="BackgroundImageFix" result="effect1_dropShadow"/>
<feBlend mode="normal" in="SourceGraphic" in2="effect1_dropShadow" result="shape"/>
</filter>
<filter id="filter5_d" x="640" y="179" width="149.227" height="149.227" filterUnits="userSpaceOnUse" color-interpolation-filters="sRGB">
<feFlood flood-opacity="0" result="BackgroundImageFix"/>
<feColorMatrix in="SourceAlpha" type="matrix" values="0 0 0 0 0 0 0 0 0 0 0 0 0 0 0 0 0 0 127 0"/>
<feOffset dy="4"/>
<feGaussianBlur stdDeviation="2"/>
<feColorMatrix type="matrix" values="0 0 0 0 0 0 0 0 0 0 0 0 0 0 0 0 0 0 0.25 0"/>
<feBlend mode="normal" in2="BackgroundImageFix" result="effect1_dropShadow"/>
<feBlend mode="normal" in="SourceGraphic" in2="effect1_dropShadow" result="shape"/>
</filter>
<filter id="filter6_d" x="156" y="0" width="157.227" height="157.227" filterUnits="userSpaceOnUse" color-interpolation-filters="sRGB">
<feFlood flood-opacity="0" result="BackgroundImageFix"/>
<feColorMatrix in="SourceAlpha" type="matrix" values="0 0 0 0 0 0 0 0 0 0 0 0 0 0 0 0 0 0 127 0"/>
<feOffset dx="4" dy="1"/>
<feGaussianBlur stdDeviation="4"/>
<feColorMatrix type="matrix" values="0 0 0 0 0 0 0 0 0 0 0 0 0 0 0 0 0 0 0.15 0"/>
<feBlend mode="normal" in2="BackgroundImageFix" result="effect1_dropShadow"/>
<feBlend mode="normal" in="SourceGraphic" in2="effect1_dropShadow" result="shape"/>
</filter>
<filter id="filter7_d" x="156" y="7" width="149.227" height="149.227" filterUnits="userSpaceOnUse" color-interpolation-filters="sRGB">
<feFlood flood-opacity="0" result="BackgroundImageFix"/>
<feColorMatrix in="SourceAlpha" type="matrix" values="0 0 0 0 0 0 0 0 0 0 0 0 0 0 0 0 0 0 127 0"/>
<feOffset dy="4"/>
<feGaussianBlur stdDeviation="2"/>
<feColorMatrix type="matrix" values="0 0 0 0 0 0 0 0 0 0 0 0 0 0 0 0 0 0 0.25 0"/>
<feBlend mode="normal" in2="BackgroundImageFix" result="effect1_dropShadow"/>
<feBlend mode="normal" in="SourceGraphic" in2="effect1_dropShadow" result="shape"/>
</filter>
<filter id="filter8_d" x="320" y="0" width="157.227" height="157.227" filterUnits="userSpaceOnUse" color-interpolation-filters="sRGB">
<feFlood flood-opacity="0" result="BackgroundImageFix"/>
<feColorMatrix in="SourceAlpha" type="matrix" values="0 0 0 0 0 0 0 0 0 0 0 0 0 0 0 0 0 0 127 0"/>
<feOffset dx="4" dy="1"/>
<feGaussianBlur stdDeviation="4"/>
<feColorMatrix type="matrix" values="0 0 0 0 0 0 0 0 0 0 0 0 0 0 0 0 0 0 0.15 0"/>
<feBlend mode="normal" in2="BackgroundImageFix" result="effect1_dropShadow"/>
<feBlend mode="normal" in="SourceGraphic" in2="effect1_dropShadow" result="shape"/>
</filter>
<filter id="filter9_d" x="320" y="7" width="149.227" height="149.227" filterUnits="userSpaceOnUse" color-interpolation-filters="sRGB">
<feFlood flood-opacity="0" result="BackgroundImageFix"/>
<feColorMatrix in="SourceAlpha" type="matrix" values="0 0 0 0 0 0 0 0 0 0 0 0 0 0 0 0 0 0 127 0"/>
<feOffset dy="4"/>
<feGaussianBlur stdDeviation="2"/>
<feColorMatrix type="matrix" values="0 0 0 0 0 0 0 0 0 0 0 0 0 0 0 0 0 0 0.25 0"/>
<feBlend mode="normal" in2="BackgroundImageFix" result="effect1_dropShadow"/>
<feBlend mode="normal" in="SourceGraphic" in2="effect1_dropShadow" result="shape"/>
</filter>
<filter id="filter10_d" x="482" y="0" width="157.227" height="157.227" filterUnits="userSpaceOnUse" color-interpolation-filters="sRGB">
<feFlood flood-opacity="0" result="BackgroundImageFix"/>
<feColorMatrix in="SourceAlpha" type="matrix" values="0 0 0 0 0 0 0 0 0 0 0 0 0 0 0 0 0 0 127 0"/>
<feOffset dx="4" dy="1"/>
<feGaussianBlur stdDeviation="4"/>
<feColorMatrix type="matrix" values="0 0 0 0 0 0 0 0 0 0 0 0 0 0 0 0 0 0 0.15 0"/>
<feBlend mode="normal" in2="BackgroundImageFix" result="effect1_dropShadow"/>
<feBlend mode="normal" in="SourceGraphic" in2="effect1_dropShadow" result="shape"/>
</filter>
<filter id="filter11_d" x="482" y="7" width="149.227" height="149.227" filterUnits="userSpaceOnUse" color-interpolation-filters="sRGB">
<feFlood flood-opacity="0" result="BackgroundImageFix"/>
<feColorMatrix in="SourceAlpha" type="matrix" values="0 0 0 0 0 0 0 0 0 0 0 0 0 0 0 0 0 0 127 0"/>
<feOffset dy="4"/>
<feGaussianBlur stdDeviation="2"/>
<feColorMatrix type="matrix" values="0 0 0 0 0 0 0 0 0 0 0 0 0 0 0 0 0 0 0.25 0"/>
<feBlend mode="normal" in2="BackgroundImageFix" result="effect1_dropShadow"/>
<feBlend mode="normal" in="SourceGraphic" in2="effect1_dropShadow" result="shape"/>
</filter>
<filter id="filter12_d" x="320" y="160" width="157.227" height="157.227" filterUnits="userSpaceOnUse" color-interpolation-filters="sRGB">
<feFlood flood-opacity="0" result="BackgroundImageFix"/>
<feColorMatrix in="SourceAlpha" type="matrix" values="0 0 0 0 0 0 0 0 0 0 0 0 0 0 0 0 0 0 127 0"/>
<feOffset dx="4" dy="1"/>
<feGaussianBlur stdDeviation="4"/>
<feColorMatrix type="matrix" values="0 0 0 0 0 0 0 0 0 0 0 0 0 0 0 0 0 0 0.15 0"/>
<feBlend mode="normal" in2="BackgroundImageFix" result="effect1_dropShadow"/>
<feBlend mode="normal" in="SourceGraphic" in2="effect1_dropShadow" result="shape"/>
</filter>
<filter id="filter13_d" x="320" y="167" width="149.227" height="149.227" filterUnits="userSpaceOnUse" color-interpolation-filters="sRGB">
<feFlood flood-opacity="0" result="BackgroundImageFix"/>
<feColorMatrix in="SourceAlpha" type="matrix" values="0 0 0 0 0 0 0 0 0 0 0 0 0 0 0 0 0 0 127 0"/>
<feOffset dy="4"/>
<feGaussianBlur stdDeviation="2"/>
<feColorMatrix type="matrix" values="0 0 0 0 0 0 0 0 0 0 0 0 0 0 0 0 0 0 0.25 0"/>
<feBlend mode="normal" in2="BackgroundImageFix" result="effect1_dropShadow"/>
<feBlend mode="normal" in="SourceGraphic" in2="effect1_dropShadow" result="shape"/>
</filter>
<filter id="filter14_d" x="482" y="160" width="157.227" height="157.227" filterUnits="userSpaceOnUse" color-interpolation-filters="sRGB">
<feFlood flood-opacity="0" result="BackgroundImageFix"/>
<feColorMatrix in="SourceAlpha" type="matrix" values="0 0 0 0 0 0 0 0 0 0 0 0 0 0 0 0 0 0 127 0"/>
<feOffset dx="4" dy="1"/>
<feGaussianBlur stdDeviation="4"/>
<feColorMatrix type="matrix" values="0 0 0 0 0 0 0 0 0 0 0 0 0 0 0 0 0 0 0.15 0"/>
<feBlend mode="normal" in2="BackgroundImageFix" result="effect1_dropShadow"/>
<feBlend mode="normal" in="SourceGraphic" in2="effect1_dropShadow" result="shape"/>
</filter>
<filter id="filter15_d" x="482" y="167" width="149.227" height="149.227" filterUnits="userSpaceOnUse" color-interpolation-filters="sRGB">
<feFlood flood-opacity="0" result="BackgroundImageFix"/>
<feColorMatrix in="SourceAlpha" type="matrix" values="0 0 0 0 0 0 0 0 0 0 0 0 0 0 0 0 0 0 127 0"/>
<feOffset dy="4"/>
<feGaussianBlur stdDeviation="2"/>
<feColorMatrix type="matrix" values="0 0 0 0 0 0 0 0 0 0 0 0 0 0 0 0 0 0 0.25 0"/>
<feBlend mode="normal" in2="BackgroundImageFix" result="effect1_dropShadow"/>
<feBlend mode="normal" in="SourceGraphic" in2="effect1_dropShadow" result="shape"/>
</filter>
<filter id="filter16_d" x="160" y="165" width="157.227" height="157.227" filterUnits="userSpaceOnUse" color-interpolation-filters="sRGB">
<feFlood flood-opacity="0" result="BackgroundImageFix"/>
<feColorMatrix in="SourceAlpha" type="matrix" values="0 0 0 0 0 0 0 0 0 0 0 0 0 0 0 0 0 0 127 0"/>
<feOffset dx="4" dy="1"/>
<feGaussianBlur stdDeviation="4"/>
<feColorMatrix type="matrix" values="0 0 0 0 0 0 0 0 0 0 0 0 0 0 0 0 0 0 0.15 0"/>
<feBlend mode="normal" in2="BackgroundImageFix" result="effect1_dropShadow"/>
<feBlend mode="normal" in="SourceGraphic" in2="effect1_dropShadow" result="shape"/>
</filter>
<filter id="filter17_d" x="160" y="172" width="149.227" height="149.227" filterUnits="userSpaceOnUse" color-interpolation-filters="sRGB">
<feFlood flood-opacity="0" result="BackgroundImageFix"/>
<feColorMatrix in="SourceAlpha" type="matrix" values="0 0 0 0 0 0 0 0 0 0 0 0 0 0 0 0 0 0 127 0"/>
<feOffset dy="4"/>
<feGaussianBlur stdDeviation="2"/>
<feColorMatrix type="matrix" values="0 0 0 0 0 0 0 0 0 0 0 0 0 0 0 0 0 0 0.25 0"/>
<feBlend mode="normal" in2="BackgroundImageFix" result="effect1_dropShadow"/>
<feBlend mode="normal" in="SourceGraphic" in2="effect1_dropShadow" result="shape"/>
</filter>
<filter id="filter18_d" x="644" y="0" width="157.227" height="157.227" filterUnits="userSpaceOnUse" color-interpolation-filters="sRGB">
<feFlood flood-opacity="0" result="BackgroundImageFix"/>
<feColorMatrix in="SourceAlpha" type="matrix" values="0 0 0 0 0 0 0 0 0 0 0 0 0 0 0 0 0 0 127 0"/>
<feOffset dx="4" dy="1"/>
<feGaussianBlur stdDeviation="4"/>
<feColorMatrix type="matrix" values="0 0 0 0 0 0 0 0 0 0 0 0 0 0 0 0 0 0 0.15 0"/>
<feBlend mode="normal" in2="BackgroundImageFix" result="effect1_dropShadow"/>
<feBlend mode="normal" in="SourceGraphic" in2="effect1_dropShadow" result="shape"/>
</filter>
<filter id="filter19_d" x="644" y="7" width="149.227" height="149.227" filterUnits="userSpaceOnUse" color-interpolation-filters="sRGB">
<feFlood flood-opacity="0" result="BackgroundImageFix"/>
<feColorMatrix in="SourceAlpha" type="matrix" values="0 0 0 0 0 0 0 0 0 0 0 0 0 0 0 0 0 0 127 0"/>
<feOffset dy="4"/>
<feGaussianBlur stdDeviation="2"/>
<feColorMatrix type="matrix" values="0 0 0 0 0 0 0 0 0 0 0 0 0 0 0 0 0 0 0.25 0"/>
<feBlend mode="normal" in2="BackgroundImageFix" result="effect1_dropShadow"/>
<feBlend mode="normal" in="SourceGraphic" in2="effect1_dropShadow" result="shape"/>
</filter>
</defs>
</svg>
