<svg width="120" height="25" viewBox="0 0 120 25" fill="none" xmlns="http://www.w3.org/2000/svg">
<path d="M21.1815 5.97483C22.1865 4.79506 22.6235 4.24888 22.5361 3.94301C22.4705 3.72453 22.2302 3.52791 21.8806 3.39682C21.5092 3.24389 20.9849 3.17835 20.7227 3.33128C20.6353 3.37497 20.5042 3.54975 20.1547 3.92116L19.827 4.27072C19.6303 4.0741 19.4119 3.85562 19.1934 3.68084C17.6641 2.34814 15.7633 1.47424 13.7315 1.14652C12.9231 0.272621 11.8526 -0.120635 10.8039 0.032298C9.93002 0.163383 9.14351 0.687724 8.61917 1.51793C6.5655 2.15151 4.68661 3.33128 3.20097 4.948C2.87326 4.83876 2.15229 4.96984 1.69349 5.23202C1.43132 5.38495 1.27839 5.53788 1.25654 5.73451C1.23469 5.86559 1.27839 6.10592 1.84642 6.7395C0.382638 9.05534 -0.229093 11.7863 0.0767726 14.4517C0.404486 17.1826 1.69349 19.6514 3.72531 21.4211C4.44628 22.0546 5.2328 22.579 6.08485 22.9941C7.30831 23.584 8.66286 23.9991 10.1048 24.1957C13.1635 24.6108 16.1129 23.9554 18.5161 22.5571C18.822 22.3823 18.9312 22.0109 18.7783 21.6614L18.7346 21.5521C18.101 20.1539 16.2003 15.8936 17.2708 12.0048C17.7078 10.388 18.9968 8.64023 20.0891 7.28569C21.2689 9.12088 21.8588 11.2838 21.7714 13.403C21.684 15.413 21.0286 17.2919 19.8488 18.8867C19.8051 18.9304 19.7833 18.996 19.8051 19.0397C19.8051 19.0615 19.8051 19.0834 19.827 19.1052L19.958 19.3892C20.0017 19.4766 20.0891 19.5203 20.1765 19.5203C20.2421 19.5203 20.3076 19.4766 20.3295 19.4329C23.4318 15.5004 23.8032 10.0603 21.1815 5.97483ZM7.3957 15.1727C7.15538 16.6364 6.80582 18.6246 7.11168 21.6614C6.30333 21.2463 5.53866 20.7438 4.86139 20.1539C3.00435 18.5153 1.73719 16.3087 1.32208 13.9055C0.906979 11.6115 1.30024 9.27381 2.39261 7.30753C2.80772 7.74448 3.31021 8.24698 3.8564 8.77132C5.14541 10.0603 6.63104 11.5023 7.33016 12.5509C7.74526 13.1408 7.61418 13.9055 7.3957 15.1727ZM18.669 5.51603C16.2877 7.91926 14.0374 9.20827 11.9837 9.38305C10.4107 9.49229 8.7284 9.03349 7.0243 7.98481C5.6042 7.11091 4.51183 6.08407 3.8564 5.47234L3.79086 5.4068C4.97062 4.16148 6.45626 3.22204 8.09482 2.74139C7.92004 3.39682 7.87635 4.0741 7.98559 4.77322C8.18222 6.01853 8.8158 7.11091 9.73339 7.78818C10.4544 8.31252 11.3064 8.531 12.1148 8.39991C12.9231 8.26883 13.666 7.81003 14.1903 7.08906C14.8676 6.17146 15.1297 4.92615 14.9331 3.68084C14.8894 3.46236 14.8457 3.22204 14.7802 3.00356C15.9818 3.46236 17.0742 4.11779 18.0573 4.96984C18.2758 5.14462 18.4724 5.34125 18.669 5.51603Z" fill="#E42313"/>
<path d="M58.8029 11.9174H56.8366V14.124C56.8366 14.6484 57.1425 14.9979 57.6668 14.9979C58.0164 14.9979 58.3441 14.9105 58.8029 14.6921V15.9155C58.213 16.1559 57.7542 16.2651 57.2299 16.2651C56.1156 16.2651 55.1325 15.7408 55.1325 14.2551V11.9174H54.3678V11.5897L56.6181 9.07725H56.8366V10.7595H58.8029V11.9174ZM81.9394 13.7089C80.8034 14.2551 80.1043 14.5828 79.0556 14.5828C77.3952 14.5828 76.2154 13.5778 76.2154 12.1359C76.2154 10.7158 77.417 9.71083 79.0993 9.71083C80.0824 9.71083 80.9563 10.0385 81.8521 10.5192V8.74954C81.0655 8.29074 80.0824 8.05042 78.9682 8.05042C75.9314 8.05042 74.1836 10.0385 74.1836 12.1578C74.1836 14.2114 75.7347 16.2214 78.8152 16.2214C79.995 16.2214 80.8252 16.0029 81.9394 15.4349V13.7089V13.7089ZM40.6476 15.4349L39.446 16.2432C38.9216 16.134 38.5721 15.85 38.3973 15.5878C38.0914 15.8718 37.6545 16.2432 36.8024 16.2432C34.9891 16.2432 34.2462 14.6265 34.2462 13.4468C34.2462 12.1578 35.0327 10.6503 36.8461 10.6503C37.5671 10.6503 38.004 10.8687 38.2662 11.0217V10.7595H39.9484V14.277C39.9266 14.7576 40.0358 15.3038 40.6476 15.4349ZM38.2443 12.0922C38.0477 11.983 37.72 11.7863 37.2612 11.7863C36.2999 11.7863 35.9722 12.8132 35.9722 13.5778C35.9722 14.2988 36.3436 15.0416 37.283 15.0416C37.7855 15.0416 38.0477 14.8232 38.2225 14.6702V12.0922H38.2443ZM52.0301 13.7308H48.1631C48.2287 14.6921 48.8841 15.2383 49.9328 15.2383C50.6101 15.2383 51.1344 15.0416 51.9209 14.4736V15.5441C50.9596 16.2651 49.9328 16.2651 49.5177 16.2651C47.6388 16.2651 46.3935 15.1727 46.3935 13.4905C46.3935 11.8519 47.5732 10.6721 49.2337 10.6721C50.8285 10.6503 52.1175 11.7645 52.0301 13.7308ZM50.6101 12.835C50.5445 12.0922 50.0857 11.6553 49.4521 11.6553C48.7749 11.6553 48.3598 12.0922 48.2942 12.835H50.6101ZM71.6493 13.7308H67.7822C67.8478 14.6921 68.5032 15.2383 69.5519 15.2383C70.2292 15.2383 70.7535 15.0416 71.54 14.4736V15.5441C70.5787 16.2651 69.5519 16.2651 69.1368 16.2651C67.236 16.2651 66.0126 15.1727 66.0126 13.4905C66.0126 11.8519 67.1923 10.6721 68.8528 10.6721C70.4258 10.6503 71.7148 11.7645 71.6493 13.7308ZM70.1418 12.835C70.0762 12.0922 69.6174 11.6553 68.962 11.6553C68.3066 11.6553 67.8696 12.0922 67.8041 12.835H70.1418ZM61.4027 8.1815H59.7205V16.134H61.4027V12.9661C61.4027 12.4636 61.7523 11.8956 62.5388 11.8956C63.0632 11.8956 63.4127 12.267 63.4127 13.0754V16.134H65.1168V12.7039C65.1168 11.2402 64.1337 10.6503 63.1505 10.6503C62.4951 10.6503 61.9052 10.9343 61.4246 11.546V8.1815H61.4027ZM84.9326 8.1815H83.2503V16.134H84.9326V12.9661C84.9326 12.4636 85.2821 11.8956 86.0686 11.8956C86.593 11.8956 86.9425 12.267 86.9425 13.0754V16.134H88.6466V12.7039C88.6466 11.2402 87.6635 10.6503 86.6804 10.6503C86.0249 10.6503 85.4351 10.9343 84.9544 11.546V8.1815H84.9326ZM33.0883 8.70584C32.0833 8.26889 31.275 8.09411 30.4011 8.09411C28.5659 8.09411 27.3643 9.01171 27.3643 10.3881C27.3643 13.2501 31.4061 12.7695 31.4061 14.0803C31.4061 14.5391 30.991 14.8232 30.2481 14.8232C29.3742 14.8232 28.6751 14.561 27.539 13.7963V15.5223C28.3256 15.9374 29.0247 16.2869 30.4011 16.2869C32.1707 16.2869 33.4597 15.3912 33.4597 13.8619C33.4597 11.0872 29.4179 11.4149 29.4179 10.2133C29.4179 9.82007 29.8767 9.5579 30.5758 9.5579C31.2531 9.5579 31.9304 9.75452 33.0883 10.2789V8.70584V8.70584ZM90.5692 8.07226C90.0667 8.07226 89.6298 8.48737 89.6298 9.01171C89.6298 9.53605 90.0449 9.95115 90.5692 9.95115C91.0936 9.95115 91.5087 9.53605 91.5087 9.01171C91.5087 8.48737 91.0936 8.07226 90.5692 8.07226ZM91.4213 10.7595H89.739V16.134H91.4213V10.7595ZM94.4144 8.1815H92.7321V14.0148C92.7321 15.0853 93.0162 16.1777 94.7858 16.2432L95.332 15.0198C94.611 14.8887 94.4362 14.561 94.4362 13.7308V8.1815H94.4144ZM104.421 10.7595H102.738V16.134H104.421V13.7745C104.421 12.7695 104.945 12.2451 105.819 12.2451C106.081 12.2451 106.387 12.3544 106.824 12.6384L107.283 11.1528C106.802 10.7814 106.496 10.6721 106.168 10.6721C105.622 10.6721 104.836 10.978 104.421 12.0267V10.7595ZM113.094 13.7308H109.227C109.293 14.6921 109.948 15.2383 110.997 15.2383C111.674 15.2383 112.198 15.0416 112.985 14.4736V15.5441C112.024 16.2651 110.997 16.2651 110.582 16.2651C108.703 16.2651 107.457 15.1727 107.457 13.4905C107.457 11.8519 108.637 10.6721 110.298 10.6721C111.871 10.6503 113.16 11.7645 113.094 13.7308ZM111.587 12.835C111.521 12.0922 111.084 11.6553 110.429 11.6553C109.773 11.6553 109.336 12.0922 109.271 12.835H111.587ZM117.551 10.6721C116.896 10.6721 116.306 10.9561 115.825 11.5679V10.7595H114.143V16.134H115.825V12.9443C115.825 12.4855 116.175 11.8956 116.961 11.8956C117.485 11.8956 117.835 12.267 117.835 13.0754V16.134H119.539V12.7258C119.539 11.262 118.534 10.6721 117.551 10.6721ZM101.493 8.1815H99.7889V10.9998C99.3301 10.7814 98.8713 10.6721 98.3907 10.6721C96.8613 10.6721 95.7689 11.8082 95.7689 13.4686C95.7689 15.0853 96.8395 16.2651 98.2814 16.2651C98.8495 16.2651 99.2864 16.1122 99.767 15.7189V16.1559H101.449V8.1815H101.493ZM99.7889 14.6702C99.4393 14.9761 99.1553 15.1072 98.7839 15.1072C97.9974 15.1072 97.4949 14.4517 97.4949 13.4686C97.4949 12.3981 97.9974 11.7645 98.8495 11.7645C99.1553 11.7645 99.5486 11.8956 99.7889 12.0704V14.6702ZM46.3498 10.7595H44.5583L43.4004 13.7308L42.2643 10.7595H40.6039L42.8979 16.134H43.9247L46.3498 10.7595Z" fill="black"/>
</svg>
