<svg width="76" height="21" viewBox="0 0 76 21" fill="none" xmlns="http://www.w3.org/2000/svg">
<g clip-path="url(#clip0)">
<path fill-rule="evenodd" clip-rule="evenodd" d="M13.0055 20.8582C12.0384 20.8582 11.3872 20.4127 11.1109 19.5217L10.4991 17.5169H4.42067L3.80888 19.4812C3.51285 20.3925 2.88133 20.838 1.93404 20.838C1.42093 20.838 0.967022 20.6557 0.592054 20.3115C0.197351 19.9875 0 19.5419 0 19.0357C0 18.8129 0.0394703 18.6307 0.0986757 18.4686L0.138146 18.2864C0.157881 18.2459 0.177616 18.2256 0.177616 18.1851L4.7759 5.75119C4.99299 5.16392 5.32849 4.65766 5.82187 4.27289C6.29551 3.88813 6.84809 3.70587 7.45988 3.70587C8.74266 3.70587 9.63075 4.3944 10.1241 5.75119C10.8346 7.63451 11.5648 9.51783 12.2753 11.3809C13.4396 14.459 14.2685 16.9093 14.7619 18.6914C14.8014 18.9344 14.8014 19.0762 14.8014 19.1167C14.8014 19.6432 14.6237 20.0482 14.2685 20.3722C13.933 20.6962 13.5186 20.8582 13.0055 20.8582ZM7.47962 8.24203L5.56531 13.9122H9.29525L7.47962 8.24203ZM22.2612 20.7165H17.5248C16.9525 20.7165 16.4591 20.5342 16.0644 20.1697C15.6697 19.8052 15.4723 19.3192 15.4723 18.7522V5.93345C15.4723 5.34618 15.6697 4.86016 16.0447 4.5159C16.4196 4.17164 16.913 3.98938 17.5051 3.98938H21.906C23.1888 3.98938 24.2742 4.37415 25.1426 5.16392C26.0109 5.9537 26.4451 6.96624 26.4451 8.24203C26.4451 9.70009 25.8728 10.7936 24.7281 11.5024C25.6359 11.7859 26.3661 12.2922 26.9385 13.0212C27.5108 13.7502 27.8068 14.5805 27.8068 15.5323C27.8068 17.2131 27.274 18.5092 26.228 19.4407C25.2215 20.2912 23.8993 20.7165 22.2612 20.7165ZM20.9192 7.47251H19.3404V10.4291H20.9192C22.0047 10.4291 22.5375 9.90259 22.5375 8.84956C22.5375 8.40404 22.3796 8.05978 22.0639 7.81677C21.7679 7.59401 21.3929 7.47251 20.9192 7.47251ZM21.5705 13.9122H19.3404V17.2536H21.8271C23.1098 17.2536 23.7414 16.6663 23.7414 15.4918C23.7611 14.4388 23.0309 13.9122 21.5705 13.9122ZM40.7136 20.8582C41.2267 20.8582 41.6411 20.6962 41.9964 20.3722C42.3516 20.0482 42.5292 19.6229 42.5292 19.1167C42.5292 19.0762 42.5095 18.9344 42.4897 18.6914C41.9766 16.9093 41.1478 14.4793 40.0031 11.3809C39.2927 9.49758 38.5625 7.61426 37.852 5.75119C37.3586 4.3944 36.4705 3.70587 35.1877 3.70587C34.576 3.70587 34.0234 3.88813 33.5497 4.27289C33.0761 4.65766 32.7209 5.14367 32.5038 5.75119L27.9055 18.1851C27.8857 18.2256 27.866 18.2459 27.866 18.2864L27.8265 18.4686C27.7673 18.6307 27.7279 18.8129 27.7279 19.0357C27.7279 19.5622 27.9252 19.9875 28.3002 20.3317C28.6751 20.676 29.1291 20.8582 29.6422 20.8582C30.5895 20.8582 31.221 20.4127 31.517 19.5014L32.1288 17.5371H38.1875L38.7993 19.5419C39.0953 20.4127 39.7268 20.8582 40.7136 20.8582ZM35.1877 8.24203L37.0034 13.9122H33.2734L35.1877 8.24203ZM54.2124 20.3722C53.0678 20.7975 51.8837 21 50.6601 21C48.2721 21 46.3184 20.1697 44.7988 18.4889C43.2792 16.8688 42.5292 14.8235 42.5292 12.3529C42.5292 9.90259 43.2594 7.85727 44.7198 6.23721C46.2394 4.53615 48.2327 3.70587 50.6601 3.70587C51.8837 3.70587 52.9494 3.88813 53.8572 4.23239C55.1597 4.71841 55.811 5.46769 55.811 6.52072C55.811 7.00674 55.6531 7.41175 55.3571 7.75602C55.061 8.10028 54.6466 8.28254 54.1729 8.28254C53.9361 8.28254 53.4427 8.14078 52.6928 7.85727C52.0415 7.61426 51.3706 7.47251 50.6798 7.47251C49.3576 7.47251 48.3116 7.97878 47.5617 8.99131C46.9104 9.90259 46.5749 11.0366 46.5749 12.4137C46.5749 13.7705 46.9104 14.9045 47.6011 15.7956C48.3511 16.7473 49.3773 17.2334 50.6601 17.2334C51.1732 17.2334 51.8837 17.0713 52.7915 16.7473C53.719 16.4233 54.2124 16.2613 54.2914 16.2613C54.765 16.2613 55.1794 16.4436 55.5149 16.7878C55.8504 17.1321 56.028 17.5574 56.028 18.0434C56.0478 19.1572 55.436 19.9267 54.2124 20.3722Z" fill="#FF9507"/>
<path fill-rule="evenodd" clip-rule="evenodd" d="M59.9555 16.6258C60.1528 16.8486 60.508 16.8891 60.7449 16.9093C60.8633 16.9296 61.0212 16.9498 61.1396 16.9701C61.4553 17.0106 62.4026 17.1118 62.7184 17.1118C62.7776 17.1118 62.7578 17.1118 62.8171 17.1118C62.9157 17.1321 63.0144 17.1118 63.1328 17.1523C62.8763 17.3346 62.1263 17.3548 61.7908 17.3751C61.5935 17.3953 61.5935 17.3548 61.4553 17.3751C61.3369 17.3953 61.179 17.5168 61.2185 17.6383C61.6724 18.1851 65.1063 18.8331 67.8495 17.1726L67.7114 16.9701C67.139 15.026 67.7114 14.2767 67.5732 13.0819C67.139 11.0974 68.6192 13.2844 68.7968 14.1147C69.2112 14.297 69.7836 12.8592 69.8033 12.7174C69.9217 11.9681 69.9414 11.5024 69.8822 10.7531C69.8625 10.5303 69.8033 10.2266 69.8625 10.0848C70.0204 9.78106 70.2769 9.94307 70.3756 10.2266C70.573 10.7936 70.6519 11.7454 70.6322 12.2922C70.6124 12.5149 70.6124 12.7377 70.573 12.9402L70.4348 13.568C70.4743 13.4869 70.494 13.4464 70.5137 13.3654C70.573 13.1629 70.6519 12.9604 70.6914 12.7579C70.8295 12.1301 70.9085 11.7656 70.8887 11.0569C70.8887 10.8341 70.8098 10.5101 70.869 10.3886C70.9479 10.1861 71.2242 10.0241 71.4018 10.3481C71.5597 10.6721 71.54 11.3606 71.5202 11.6846C71.5005 12.1707 71.461 12.4947 71.3821 12.9604L71.3032 13.3654C71.461 13.1427 71.6781 12.4339 71.7571 12.1301C71.8163 11.8061 71.8755 10.8544 72.2899 11.0974C72.5267 11.2391 72.4675 11.5834 72.4281 11.7454C72.4083 11.9681 72.3689 12.1909 72.3294 12.3934C72.3096 12.4947 72.2899 12.6162 72.2702 12.7174C72.2307 12.9199 72.0728 13.5882 72.0531 13.6692C72.2702 13.2642 72.3294 12.5959 72.4083 12.5554C73.0201 12.2517 72.3096 14.7425 72.2504 14.9247C68.3429 25.0704 55.1204 20.595 56.1071 11.0164C56.2058 11.0974 56.3439 11.1986 56.4821 11.2999C56.64 11.4214 58.7911 12.7579 58.6727 12.0896C58.6529 12.0086 58.0412 11.7859 57.7254 11.4416C57.8043 11.4619 58.3964 11.8264 58.574 11.9074C58.6727 11.9479 58.7714 12.0086 58.87 12.0491C59.0674 12.1504 59.2647 12.2314 59.4621 12.3124C59.62 12.3732 59.916 12.5352 60.1133 12.3327C60.4488 11.9884 59.5608 11.6846 59.2647 11.5429C58.9884 11.4011 58.3767 10.9961 58.2188 10.7733L58.574 10.9556C58.9884 11.1581 59.2845 11.2796 59.7384 11.4214C60.0541 11.5226 60.6857 11.7251 61.0409 11.6441C61.3961 11.5631 61.2974 11.2391 61.1396 11.0974C61.0409 11.0164 60.7251 10.9961 60.508 10.9354C59.8371 10.7733 59.5213 10.5911 58.9687 10.3076C58.7911 10.2266 58.6135 10.0848 58.4556 9.96332C58.3767 9.92282 58.3569 9.90257 58.2977 9.84182L58.8503 10.1456C59.0279 10.2266 59.245 10.3076 59.4424 10.3683C59.9555 10.5506 60.8633 10.7126 61.4553 10.6518C61.7514 10.6316 61.9684 10.4291 61.7316 10.1861C61.6329 10.0848 61.3172 10.0646 61.1001 10.0241C60.3699 9.88232 59.9357 9.74056 59.2647 9.41655C59.1463 9.3558 57.9425 8.40401 58.2188 8.05975C59.0476 8.10025 61.4948 7.20922 59.5213 7.12822C58.9292 7.04722 58.6727 6.88521 58.5148 6.74345C61.2382 3.7666 68.4218 3.9286 68.0469 4.92089C67.9679 5.00189 66.922 5.02214 66.3299 5.18415C67.0404 5.3259 68.9547 5.18415 69.8625 5.62966C70.0204 6.25744 68.7968 5.97393 68.3626 5.95368C67.9482 5.93343 66.9614 5.97393 66.6457 6.11568L67.1785 6.13593C67.7903 6.19668 68.2245 6.25744 68.8363 6.39919C69.2507 6.50045 70.1388 6.70295 70.494 7.04722C70.8492 7.39148 70.5137 7.69524 70.2375 7.73574C70.0598 7.75599 69.6849 7.57373 69.4086 7.47248C68.5402 7.18897 68.0271 7.16872 67.1983 7.12822C66.9417 7.10797 66.6457 7.14847 66.3694 7.14847C66.251 7.14847 66.1918 7.14847 66.0931 7.18897L66.922 7.22947C67.1983 7.24972 67.4745 7.31048 67.7706 7.37123C68.481 7.53323 69.6454 7.97875 70.2967 8.44452C70.6124 8.68752 70.7308 9.05204 70.2967 9.17354C70.0993 9.23429 69.7243 9.01154 69.4481 8.93053C68.5008 8.58627 67.9285 8.44452 66.922 8.34326C66.7443 8.32301 64.7116 8.58627 64.8103 9.19379C65.7971 9.72031 68.2245 12.6567 65.876 11.3606C63.6854 10.4493 64.2775 11.6644 62.3829 10.4898C61.7908 10.8139 62.6789 11.6644 62.9947 11.9681C63.4091 12.3529 65.2642 13.3857 63.7643 13.7097C63.0341 13.8515 62.0079 13.649 61.2975 13.4464C61.0409 13.3654 60.7449 13.2844 60.4883 13.1832C60.3107 13.1224 59.7778 12.8794 59.6594 12.8794C59.3634 12.8794 59.1068 13.1629 59.5608 13.568C60.1331 14.0742 61.3764 14.5197 62.0474 14.702C62.6592 14.864 63.1723 14.9045 63.7051 14.9247C63.6657 14.945 63.488 14.945 63.4288 14.9653C63.3104 14.9855 63.271 14.9653 63.1526 14.9653C62.9157 14.9653 62.896 14.9855 62.6 14.9653C62.2645 14.945 61.8303 14.9045 61.4751 14.8437C61.1198 14.783 60.7449 14.6615 60.3502 14.5197C60.1725 14.459 59.9752 14.378 59.7976 14.297C59.245 14.0742 58.87 14.3577 59.2253 14.8437C59.6989 15.4918 61.8106 15.8563 62.5802 15.9373L63.1526 15.9778C63.0144 15.998 62.8763 16.0183 62.7184 16.0385C62.5605 16.0588 62.4224 16.0588 62.2645 16.079L61.5935 16.0993C61.1001 16.1398 60.2515 15.8563 60.0344 16.079C59.8371 16.2815 59.837 16.5246 59.9555 16.6258Z" fill="#FF9507"/>
<path fill-rule="evenodd" clip-rule="evenodd" d="M67.7507 4.19189L67.7705 4.21214C67.7705 4.21214 67.7705 4.19189 67.7705 4.15139C68.777 2.9971 72.0135 0.931524 73.0397 2.24782C71.7372 2.12632 68.323 3.21986 67.7902 4.3944L67.9876 4.53615C68.0073 4.53615 67.9876 4.53615 68.027 4.5564C70.7307 6.03471 73.2174 4.3539 75.6448 2.63258L75.9605 2.40983C76 2.38958 76 2.43008 76 2.32882C75.9803 2.30857 75.9605 2.30857 75.9408 2.28832C75.8816 2.22757 75.8027 2.14657 75.7435 2.08582C70.1979 -3.05787 68.106 2.79459 67.7902 3.98938C67.7902 3.13885 67.435 0.242999 64.0405 1.90356C64.0011 1.92381 63.9616 1.96431 63.9024 1.98456C63.8826 1.98456 63.8826 1.98456 63.8629 2.00481C63.8432 2.06556 63.8629 2.02506 63.8826 2.04531L64.0011 2.20732C64.9878 3.44261 65.9746 4.69816 67.5731 4.3539C67.5928 4.3539 67.5928 4.3539 67.5928 4.3539L67.7113 4.31339C67.6126 3.64512 66.0338 2.55158 65.3628 2.40983C66.0732 1.90356 67.3758 3.40211 67.731 4.17164C67.7507 4.17164 67.7507 4.19189 67.7507 4.19189Z" fill="#FF9507"/>
</g>
<defs>
<clipPath id="clip0">
<rect width="76" height="21" fill="white"/>
</clipPath>
</defs>
</svg>
