<svg width="67" height="61" viewBox="0 0 67 61" fill="none" xmlns="http://www.w3.org/2000/svg">
<path d="M24.2047 42.3869C35.9095 42.3869 45.3981 32.8982 45.3981 21.1934C45.3981 9.48862 35.9095 0 24.2047 0C12.4998 0 3.01123 9.48862 3.01123 21.1934C3.01123 32.8982 12.4998 42.3869 24.2047 42.3869Z" fill="#8EE9A6"/>
<path d="M56.4845 2.07615C59.1092 3.40809 60.4412 5.21011 60.4412 7.44306C60.4412 8.53995 60.1278 9.51931 59.4618 10.3811C58.7958 11.2038 57.934 11.6347 56.8763 11.6347C56.0536 11.6347 55.3877 11.5172 54.9176 11.2822C54.4083 11.0471 53.899 10.7337 53.4289 10.3811C52.9588 9.9894 52.4887 9.67601 52.0186 9.44096C51.5094 9.20591 50.7651 8.97087 49.7857 8.775C48.8063 8.57913 47.9837 8.4616 47.396 8.4616C43.5961 8.4616 40.6188 9.63683 38.4642 11.9873C36.3096 14.3378 35.2519 17.4326 35.2519 21.2325C35.2519 24.8757 36.3488 27.8922 38.5034 30.321C40.6972 32.7106 43.4786 33.9251 46.8476 33.9251C49.3156 33.9251 51.196 33.6117 52.4104 33.024C52.7238 32.8673 53.1155 32.5931 53.664 32.2406C54.2124 31.8488 54.6825 31.5746 55.1526 31.3787C55.6227 31.1828 56.1711 31.0653 56.8371 31.0653C58.0907 31.0653 59.1092 31.4571 59.8535 32.2797C60.5979 33.1024 60.9504 34.1209 60.9504 35.3745C60.9504 36.5889 60.2453 37.725 58.835 38.7827C57.4247 39.8404 55.5443 40.7022 53.233 41.329C50.9217 41.9558 48.4146 42.2692 45.7899 42.2692C41.8724 42.2692 38.4642 41.3682 35.487 39.527C32.5097 37.6858 30.1592 35.1395 28.5531 31.9271C26.9469 28.7148 26.1243 25.1108 26.1243 21.1933C26.1243 17.08 26.9861 13.4368 28.6706 10.2636C30.3551 7.09049 32.7448 4.58332 35.7612 2.78129C38.8168 0.979259 42.225 0.0782471 46.1033 0.0782471C50.3733 0.0782471 53.8598 0.744217 56.4845 2.07615Z" fill="#697FE4"/>
<path d="M41.99 32.8675C40.6972 32.2799 39.522 31.418 38.5034 30.282C36.3096 27.8923 35.2519 24.8367 35.2519 21.1935C35.2519 17.3935 36.3096 14.3379 38.4642 11.9483C39.4436 10.8514 40.6188 10.0287 41.99 9.4411C40.2663 6.85558 37.9942 4.66181 35.3303 3.01648C32.5097 4.77933 30.2768 7.20815 28.6706 10.2246C26.9861 13.3977 26.1243 17.041 26.1243 21.1543C26.1243 25.1109 26.9469 28.6758 28.5531 31.8881C30.1201 35.0221 32.353 37.4901 35.1736 39.2921C37.9158 37.7251 40.2271 35.4922 41.99 32.8675Z" fill="#00AC9F"/>
<path d="M24.2047 42.3869C35.9095 42.3869 45.3981 32.8982 45.3981 21.1934C45.3981 9.48862 35.9095 0 24.2047 0C12.4998 0 3.01123 9.48862 3.01123 21.1934C3.01123 32.8982 12.4998 42.3869 24.2047 42.3869Z" fill="url(#paint0_linear)"/>
<path d="M56.4845 2.07615C59.1092 3.40809 60.4412 5.21011 60.4412 7.44306C60.4412 8.53995 60.1278 9.51931 59.4618 10.3811C58.7958 11.2038 57.934 11.6347 56.8763 11.6347C56.0536 11.6347 55.3877 11.5172 54.9176 11.2822C54.4083 11.0471 53.899 10.7337 53.4289 10.3811C52.9588 9.9894 52.4887 9.67601 52.0186 9.44096C51.5094 9.20591 50.7651 8.97087 49.7857 8.775C48.8063 8.57913 47.9837 8.4616 47.396 8.4616C43.5961 8.4616 40.6188 9.63683 38.4642 11.9873C36.3096 14.3378 35.2519 17.4326 35.2519 21.2325C35.2519 24.8757 36.3488 27.8922 38.5034 30.321C40.6972 32.7106 43.4786 33.9251 46.8476 33.9251C49.3156 33.9251 51.196 33.6117 52.4104 33.024C52.7238 32.8673 53.1155 32.5931 53.664 32.2406C54.2124 31.8488 54.6825 31.5746 55.1526 31.3787C55.6227 31.1828 56.1711 31.0653 56.8371 31.0653C58.0907 31.0653 59.1092 31.4571 59.8535 32.2797C60.5979 33.1024 60.9504 34.1209 60.9504 35.3745C60.9504 36.5889 60.2453 37.725 58.835 38.7827C57.4247 39.8404 55.5443 40.7022 53.233 41.329C50.9217 41.9558 48.4146 42.2692 45.7899 42.2692C41.8724 42.2692 38.4642 41.3682 35.487 39.527C32.5097 37.6858 30.1592 35.1395 28.5531 31.9271C26.9469 28.7148 26.1243 25.1108 26.1243 21.1933C26.1243 17.08 26.9861 13.4368 28.6706 10.2636C30.3551 7.09049 32.7448 4.58332 35.7612 2.78129C38.8168 0.979259 42.225 0.0782471 46.1033 0.0782471C50.3733 0.0782471 53.8598 0.744217 56.4845 2.07615Z" fill="#697FE4"/>
<path d="M41.99 32.8675C40.6972 32.2799 39.522 31.418 38.5034 30.282C36.3096 27.8923 35.2519 24.8367 35.2519 21.1935C35.2519 17.3935 36.3096 14.3379 38.4642 11.9483C39.4436 10.8514 40.6188 10.0287 41.99 9.4411C40.2663 6.85558 37.9942 4.66181 35.3303 3.01648C32.5097 4.77933 30.2768 7.20815 28.6706 10.2246C26.9861 13.3977 26.1243 17.041 26.1243 21.1543C26.1243 25.1109 26.9469 28.6758 28.5531 31.8881C30.1201 35.0221 32.353 37.4901 35.1736 39.2921C37.9158 37.7251 40.2271 35.4922 41.99 32.8675Z" fill="#1F4AA8"/>
<path d="M3.11 58.4682C3.77 58.4682 4.37 58.1782 4.78 57.7082C5.23 57.2682 5.48 56.6482 5.48 55.9482C5.48 55.2682 5.23 54.6782 4.78 54.1982C4.37 53.7282 3.77 53.4382 3.11 53.4382C2.42 53.4382 1.84 53.7282 1.39 54.1982C0.96 54.6782 0.7 55.2682 0.7 55.9482C0.7 56.6482 0.96 57.2682 1.39 57.7082C1.84 58.1782 2.42 58.4682 3.11 58.4682ZM2.15 54.9082C2.4 54.6882 2.73 54.5282 3.11 54.5282C3.46 54.5282 3.78 54.6882 4.03 54.9082C4.28 55.1782 4.42 55.5382 4.42 55.9482C4.42 56.3782 4.28 56.7282 4.03 57.0082C3.78 57.2482 3.46 57.3782 3.11 57.3782C2.73 57.3782 2.4 57.2482 2.15 57.0082C1.92 56.7282 1.79 56.3782 1.79 55.9482C1.79 55.5382 1.92 55.1782 2.15 54.9082ZM7.71 60.3182C8.03 60.3182 8.28 60.0582 8.28 59.7782V58.0182C8.64 58.2782 9.12 58.4282 9.62 58.4282C10.95 58.4282 12.04 57.3182 12.04 55.9482C12.04 54.5782 10.95 53.4382 9.62 53.4382C9.11 53.4382 8.63 53.6082 8.26 53.8482C8.22 53.6282 7.99 53.4382 7.71 53.4382C7.42 53.4382 7.18 53.6782 7.18 53.9682V55.9482C7.18 55.9582 7.18 55.9582 7.18 55.9582V59.7782C7.18 60.0582 7.42 60.3182 7.71 60.3182ZM8.67 54.9382C8.92 54.6682 9.25 54.5282 9.62 54.5282C9.96 54.5282 10.3 54.6682 10.56 54.9382C10.79 55.1982 10.95 55.5582 10.95 55.9482C10.95 56.3382 10.79 56.7182 10.56 56.9482C10.3 57.2282 9.96 57.3682 9.62 57.3682C9.25 57.3682 8.92 57.2282 8.67 56.9482C8.41 56.7182 8.28 56.3382 8.28 55.9482C8.28 55.5582 8.41 55.1982 8.67 54.9382ZM15.7739 58.4382C16.4839 58.4382 17.0739 58.2282 17.5639 57.7782C17.7939 57.5682 17.6939 57.2682 17.5639 57.1282C17.4339 56.9682 17.0239 56.9382 16.8139 57.1582C16.5639 57.3482 16.1339 57.4382 15.7739 57.4082C15.4239 57.3782 15.0239 57.1982 14.8139 56.9582C14.6339 56.7882 14.5239 56.5282 14.4739 56.2982H17.6539C17.9339 56.2982 18.1439 56.1382 18.1739 55.8982C18.1839 55.8782 18.1839 55.8282 18.1839 55.8082C18.1839 55.7882 18.1839 55.7682 18.1839 55.7582C18.1039 54.4082 17.0739 53.4382 15.7739 53.4382C14.4039 53.4382 13.3439 54.5782 13.3339 55.9382C13.3439 57.2982 14.4039 58.4282 15.7739 58.4382ZM15.7739 54.3882C16.6439 54.4582 17.1539 55.0482 17.2539 55.4482H14.4239C14.5039 55.0382 14.9239 54.4282 15.7739 54.3882ZM21.8577 53.4382C21.4677 53.4382 21.0977 53.5582 20.7977 53.7482C20.7077 53.5582 20.5177 53.4382 20.3077 53.4382C20.0077 53.4382 19.7777 53.6782 19.7777 53.9682V55.5182V57.9082C19.7777 58.1982 20.0077 58.4382 20.3077 58.4382C20.5677 58.4382 20.7877 58.2482 20.8377 58.0082C20.8577 57.9682 20.8577 57.9382 20.8577 57.9082V55.5182C20.8577 54.9582 21.2977 54.5082 21.8577 54.5082C22.4277 54.5082 22.8977 54.9582 22.8977 55.5182V57.9082C22.8977 58.1982 23.1477 58.4382 23.4277 58.4382C23.7177 58.4382 23.9477 58.1982 23.9477 57.9082V55.5182C23.9477 54.3882 23.0177 53.4382 21.8577 53.4382ZM31.0985 58.4382C31.6985 58.4382 32.2585 58.2182 32.6885 57.9082C32.9185 57.7082 32.9585 57.3882 32.7985 57.1682C32.5985 56.9282 32.2685 56.8882 32.0485 57.0582C31.7885 57.2482 31.4585 57.3782 31.0985 57.3782C30.2885 57.3782 29.6185 56.7182 29.6185 55.9482C29.6185 55.1782 30.2885 54.5082 31.0985 54.5082C31.4685 54.5082 31.7885 54.6382 32.0485 54.8282C32.2785 55.0082 32.5985 54.9682 32.7985 54.7282C32.9585 54.5082 32.9185 54.1682 32.6885 53.9882C32.2585 53.6582 31.6985 53.4382 31.0985 53.4382C29.7185 53.4482 28.5585 54.5582 28.5585 55.9482C28.5585 57.3182 29.7185 58.4382 31.0985 58.4382ZM35.7314 55.6282C35.7414 55.0382 36.2114 54.5582 36.8014 54.5482C37.4014 54.5582 37.8814 55.0382 37.8814 55.6282V57.8882C37.8814 58.1982 38.1214 58.4382 38.4314 58.4382C38.7414 58.4382 38.9814 58.1982 38.9814 57.8882V55.6282C38.9814 54.4282 38.0114 53.4382 36.8014 53.4382C36.4114 53.4382 36.0514 53.5582 35.7314 53.7282V51.9882C35.7314 51.6782 35.4814 51.4382 35.1714 51.4382C34.8714 51.4382 34.6214 51.6782 34.6214 51.9882V57.8882C34.6214 57.9382 34.6314 57.9882 34.6414 58.0282C34.7114 58.2582 34.9214 58.4382 35.1714 58.4382C35.4814 58.4382 35.7314 58.1982 35.7314 57.8882V55.6282ZM45.3846 53.9782C45.3846 53.6782 45.1446 53.4382 44.8546 53.4382C44.5946 53.4382 44.3946 53.6282 44.3346 53.8782C43.9546 53.6082 43.5046 53.4382 43.0046 53.4382C42.3246 53.4382 41.7346 53.7282 41.3046 54.1882C40.8746 54.6382 40.6246 55.2582 40.6246 55.9482C40.6246 56.6282 40.8746 57.2482 41.3046 57.7082C41.7346 58.1582 42.3246 58.4382 43.0046 58.4382C43.5046 58.4382 43.9546 58.2782 44.3346 58.0082C44.3946 58.2482 44.5946 58.4382 44.8546 58.4382C45.1446 58.4382 45.3846 58.1982 45.3846 57.9082V55.9482V53.9782ZM43.9346 56.9782C43.6946 57.2282 43.3546 57.3682 43.0046 57.3682C42.6446 57.3682 42.3046 57.2282 42.0746 56.9782C41.8346 56.7182 41.6946 56.3582 41.6946 55.9482C41.6946 55.5282 41.8346 55.1682 42.0746 54.9182C42.3046 54.6482 42.6446 54.5082 43.0046 54.5082C43.3546 54.5082 43.6946 54.6482 43.9346 54.9182C44.1746 55.1682 44.3246 55.5282 44.3246 55.9482C44.3246 56.3582 44.1746 56.7182 43.9346 56.9782ZM49.896 53.4482C49.396 53.4382 48.966 53.6182 48.636 53.8382C48.566 53.8882 48.486 53.9682 48.426 54.0382V53.9682C48.426 53.6782 48.176 53.4482 47.876 53.4482C47.586 53.4482 47.346 53.6782 47.346 53.9682V57.9082C47.346 58.1982 47.586 58.4382 47.876 58.4382C48.176 58.4382 48.426 58.1982 48.426 57.9082V56.0082C48.476 55.8682 48.596 55.4882 48.836 55.1682C48.956 54.9782 49.106 54.8082 49.296 54.6882C49.466 54.5582 49.666 54.4982 49.896 54.4982C50.196 54.4982 50.426 54.2482 50.426 53.9682C50.426 53.6782 50.196 53.4482 49.896 53.4482ZM52.2905 53.4482C51.9905 53.4482 51.7505 53.6782 51.7505 53.9982V57.8982C51.7505 58.1982 51.9905 58.4382 52.2905 58.4382C52.6005 58.4382 52.8305 58.1982 52.8305 57.8982V53.9982C52.8305 53.6782 52.6005 53.4482 52.2905 53.4482ZM52.8305 51.9782C52.8305 51.6782 52.6005 51.4382 52.2905 51.4382C51.9905 51.4382 51.7505 51.6782 51.7505 51.9782V52.1882C51.7505 52.4882 51.9905 52.7382 52.2905 52.7382C52.6005 52.7382 52.8305 52.4882 52.8305 52.1882V51.9782ZM56.243 53.4382H55.993V51.9882C55.993 51.6782 55.753 51.4382 55.443 51.4382C55.133 51.4382 54.883 51.6782 54.883 51.9882V53.4382H54.593C54.283 53.4382 54.043 53.6782 54.043 53.9882C54.043 54.2882 54.283 54.5382 54.593 54.5382H54.883V57.3282C54.883 57.9382 55.383 58.4382 55.993 58.4382C56.303 58.4382 56.543 58.1982 56.543 57.8882C56.543 57.5782 56.303 57.3282 55.993 57.3282V54.5382H56.243C56.543 54.5382 56.803 54.2882 56.803 53.9882C56.803 53.6782 56.543 53.4382 56.243 53.4382ZM61.787 53.4382C61.487 53.4382 61.267 53.6682 61.267 53.9682V56.3282C61.267 56.9082 60.807 57.3482 60.237 57.3482C59.667 57.3482 59.197 56.9082 59.197 56.3282V53.9682C59.197 53.6682 58.977 53.4382 58.667 53.4382C58.397 53.4382 58.147 53.6682 58.147 53.9682V56.3282C58.147 57.4782 59.087 58.4282 60.237 58.4282C60.567 58.4282 60.907 58.3482 61.187 58.1882C61.027 58.7082 60.527 59.0882 59.937 59.0982C59.737 59.0982 59.547 59.0482 59.357 58.9582C59.117 58.8282 58.777 58.9382 58.647 59.1782C58.527 59.4582 58.627 59.7682 58.907 59.8882C59.207 60.0382 59.577 60.1382 59.937 60.1382C61.267 60.1382 62.327 59.0882 62.327 57.7482V56.3282V53.9682C62.327 53.6682 62.077 53.4382 61.787 53.4382Z" fill="#697FE4"/>
<defs>
<linearGradient id="paint0_linear" x1="24.2047" y1="0" x2="24.2047" y2="42.3869" gradientUnits="userSpaceOnUse">
<stop stop-color="#8EBFE9"/>
<stop offset="1" stop-color="#2B90E8" stop-opacity="0"/>
</linearGradient>
</defs>
</svg>
